<svg width="24" height="24" viewBox="0 0 24 24" fill="none" xmlns="http://www.w3.org/2000/svg">
<g id="prayer_times">
<mask id="mask0_278_1365" style="mask-type:alpha" maskUnits="userSpaceOnUse" x="0" y="0" width="24" height="24">
<rect id="Bounding box" width="24" height="24" fill="#D9D9D9"/>
</mask>
<g mask="url(#mask0_278_1365)">
<path id="prayer_times_2" d="M11.9973 16.6153C13.2734 16.6153 14.3622 16.1694 15.2634 15.2774C16.1647 14.3854 16.6154 13.2935 16.6154 12.0017C16.6154 11.8787 16.6112 11.7556 16.6029 11.6326C16.5945 11.5096 16.5737 11.3878 16.5404 11.2673C16.3713 11.9893 15.9947 12.5845 15.4106 13.053C14.8264 13.5215 14.1424 13.7557 13.3584 13.7557C12.4361 13.7557 11.659 13.4397 11.0269 12.8077C10.3949 12.1756 10.0788 11.4013 10.0788 10.4846C10.0788 9.76923 10.2811 9.13141 10.6856 8.57116C11.0901 8.01091 11.6135 7.6154 12.2558 7.38463H11.9981C10.7064 7.38463 9.61451 7.8345 8.72257 8.73423C7.83062 9.63395 7.38465 10.7221 7.38465 11.9986C7.38465 13.2906 7.83053 14.383 8.7223 15.2759C9.61408 16.1689 10.7057 16.6153 11.9973 16.6153ZM12.9481 11.5385L14.3077 10.55L15.6423 11.5385L15.1154 9.96346L16.475 8.98461L14.8096 9.00001L14.3077 7.38463L13.7961 9.00001L12.1154 8.98461L13.475 9.96346L12.9481 11.5385ZM12 22.6077L8.8594 19.5H4.50002V15.1406L1.39235 12L4.50002 8.85938V4.50001H8.8594L12 1.39233L15.1406 4.50001H19.5V8.85938L22.6077 12L19.5 15.1406V19.5H15.1406L12 22.6077ZM12 20.5L14.5 18H18V14.5L20.5 12L18 9.49998V5.99998H14.5L12 3.49998L9.5 5.99998H6V9.49998L3.5 12L6 14.5V18H9.5L12 20.5Z" fill="#F9F9F9"/>
</g>
</g>
</svg>
