<svg width="24" height="24" viewBox="0 0 24 24" fill="none" xmlns="http://www.w3.org/2000/svg">
<rect width="9.75" height="8.25" transform="translate(6 3.75)" fill="white"/>
<path d="M11.25 18.25H9C7.9 18.25 7 19.15 7 20.25V20.5H6C5.59 20.5 5.25 20.84 5.25 21.25C5.25 21.66 5.59 22 6 22H18C18.41 22 18.75 21.66 18.75 21.25C18.75 20.84 18.41 20.5 18 20.5H17V20.25C17 19.15 16.1 18.25 15 18.25H12.75V15.96C12.5 15.99 12.25 16 12 16C11.75 16 11.5 15.99 11.25 15.96V18.25Z" fill="#3384FF"/>
<path d="M18.48 11.64C19.14 11.39 19.72 10.98 20.18 10.52C21.11 9.49 21.72 8.26 21.72 6.82C21.72 5.38 20.59 4.25 19.15 4.25H18.59C18.2628 3.57608 17.7526 3.00775 17.1178 2.6099C16.483 2.21204 15.7492 2.0007 15 2H9C7.42 2 6.06 2.92 5.41 4.25H4.85C3.41 4.25 2.28 5.38 2.28 6.82C2.28 8.26 2.89 9.49 3.82 10.52C4.28 10.98 4.86 11.39 5.52 11.64C6.04238 12.9299 6.93844 14.0343 8.0931 14.8112C9.24776 15.5881 10.6083 16.0021 12 16C14.94 16 17.44 14.2 18.48 11.64ZM14.84 8.45L14.22 9.21C14.12 9.32 14.05 9.54 14.06 9.69L14.12 10.67C14.16 11.27 13.73 11.58 13.17 11.36L12.26 11C12.0903 10.95 11.9097 10.95 11.74 11L10.83 11.36C10.27 11.58 9.84 11.27 9.88 10.67L9.94 9.69C9.94379 9.51631 9.88725 9.34668 9.78 9.21L9.16 8.45C8.77 7.99 8.94 7.48 9.52 7.33L10.47 7.09C10.62 7.05 10.8 6.91 10.88 6.78L11.41 5.96C11.74 5.45 12.26 5.45 12.59 5.96L13.12 6.78C13.2 6.91 13.38 7.05 13.53 7.09L14.48 7.33C15.06 7.48 15.23 7.99 14.84 8.45Z" fill="#3384FF"/>
</svg>
