<svg width="44" height="44" viewBox="0 0 44 44" fill="none" xmlns="http://www.w3.org/2000/svg">
<g id="Frame 332">
<g clip-path="url(#clip0_279_1439)">
<rect width="44" height="44" rx="22" fill="#7B88FF"/>
<path id="Vector 1" d="M53.5 36.5L24 8L19 10.5L15 34.5L26.5 47L53.5 36.5Z" fill="black" fill-opacity="0.2"/>
<g id="dark_mode">
<mask id="mask0_279_1439" style="mask-type:alpha" maskUnits="userSpaceOnUse" x="3" y="3" width="38" height="38">
<rect id="Bounding box" x="3" y="3" width="38" height="38" fill="#D9D9D9"/>
</mask>
<g mask="url(#mask0_279_1439)">
<path id="dark_mode_2" d="M22 36.25C18.0417 36.25 14.6771 34.8646 11.9062 32.0938C9.13542 29.3229 7.75 25.9583 7.75 22C7.75 18.0417 9.13542 14.6771 11.9062 11.9062C14.6771 9.13542 18.0417 7.75 22 7.75C22.3694 7.75 22.7323 7.76319 23.0885 7.78958C23.4448 7.81597 23.7944 7.85556 24.1375 7.90833C23.0556 8.67361 22.1913 9.66979 21.5448 10.8969C20.8983 12.124 20.575 13.45 20.575 14.875C20.575 17.25 21.4063 19.2688 23.0688 20.9312C24.7313 22.5938 26.75 23.425 29.125 23.425C30.5764 23.425 31.909 23.1017 33.1229 22.4552C34.3368 21.8087 35.3264 20.9444 36.0917 19.8625C36.1444 20.2056 36.184 20.5552 36.2104 20.9115C36.2368 21.2677 36.25 21.6306 36.25 22C36.25 25.9583 34.8646 29.3229 32.0938 32.0938C29.3229 34.8646 25.9583 36.25 22 36.25Z" fill="white"/>
</g>
</g>
</g>
</g>
<defs>
<clipPath id="clip0_279_1439">
<rect width="44" height="44" rx="22" fill="white"/>
</clipPath>
</defs>
</svg>
