<svg width="120" height="120" viewBox="0 0 120 120" fill="none" xmlns="http://www.w3.org/2000/svg">
<g id="Surah Name - Thuluth Style">
<g id="Vector">
<path fill-rule="evenodd" clip-rule="evenodd" d="M112.478 47.7904C112.067 47.6604 111.655 47.292 111.287 46.707C110.767 45.8837 110.442 45.3853 110.29 45.2553L109.878 46.0353C109.878 47.8121 110.095 50.5855 110.507 54.3556C110.918 58.1257 111.135 60.9858 111.135 62.9359C111.135 66.7927 111.027 69.5661 110.832 71.2561C110.485 74.1596 109.727 76.7163 108.535 78.9047C108.925 77.973 109.185 76.9547 109.315 75.8713C109.445 74.7879 109.532 73.6179 109.532 72.3612C109.532 71.2561 109.488 69.7611 109.402 67.9194C109.315 66.056 109.272 64.9943 109.272 64.7126L107.408 40.7918C107.278 40.5102 107.191 40.1852 107.191 39.7951C107.191 39.2751 107.452 38.6251 107.95 37.8667C108.448 37.1084 108.817 36.5667 109.012 36.2634C109.922 38.4518 110.615 40.3152 111.092 41.8752C111.72 43.8903 112.175 45.862 112.5 47.8121L112.478 47.7904ZM92.9777 35.2017C93.0427 35.5483 92.9344 35.8517 92.6744 36.1334C92.566 36.2417 92.306 36.4367 91.8943 36.7617C90.291 37.3467 87.7559 38.2568 84.2458 39.4701C79.9556 40.9652 77.3772 41.8535 76.5539 42.1785C73.9104 43.1536 71.397 44.1719 69.0136 45.2553C69.122 44.497 69.6203 43.8903 70.5303 43.4353C71.332 43.0886 72.1337 42.7202 72.9137 42.3519C79.609 39.9901 86.3042 37.6284 92.9777 35.2233V35.2017ZM91.6343 54.7023C91.6993 55.1573 91.6343 55.6123 91.3743 56.089C91.136 56.5657 90.811 56.934 90.3776 57.2157C90.0743 57.259 89.8143 57.1724 89.6409 56.999C89.4676 56.8257 89.3159 56.5657 89.1643 56.219C89.1643 55.569 89.3159 54.919 89.5976 54.2906C89.9009 53.6622 90.2693 53.1206 90.7243 52.6872C90.7243 52.9256 90.5943 53.2939 90.3126 53.7706C90.031 54.2473 89.9009 54.6373 89.9009 54.919C89.9009 55.2006 90.096 55.4606 90.4643 55.699C90.7026 55.699 90.941 55.5473 91.136 55.2656C91.3527 54.9623 91.5043 54.7889 91.6127 54.7239L91.6343 54.7023ZM86.9542 49.5454C86.7375 50.0655 86.4342 50.6288 86.0008 51.2355C85.5675 51.8422 85.1558 52.4272 84.7875 52.9689C84.3324 52.8389 83.7474 52.5139 83.0107 52.0372C82.274 51.5605 81.754 51.2355 81.4507 51.1055C81.624 50.4771 81.9274 49.8705 82.339 49.2854C82.5774 48.9388 83.0541 48.3971 83.7474 47.6821C84.2674 47.8554 84.7875 48.1154 85.3291 48.4837C85.8708 48.8521 86.4125 49.1988 86.9759 49.5454H86.9542ZM100.106 46.837C99.8896 45.3853 99.4346 43.7603 98.6979 41.9402C97.9612 40.1418 97.2679 38.4084 96.5745 36.74C96.1195 37.0217 95.7295 37.4551 95.3828 38.0401C95.0361 38.6251 94.7544 39.2535 94.5594 39.9035C94.9494 43.3269 95.3395 46.772 95.7511 50.1955C96.4012 55.9157 96.8345 59.6858 97.0295 61.5275C97.2245 63.3692 97.5495 66.6193 97.9829 71.2995C97.1595 71.9278 96.2928 72.3612 95.4261 72.6212C94.5594 72.8812 93.5627 73.0112 92.4577 73.0112C91.591 73.0112 90.7026 72.9029 89.8143 72.7078C89.9876 71.6678 90.161 70.5844 90.356 69.4361C90.551 68.2877 90.6376 67.3127 90.6376 66.5327C90.6376 65.7526 90.551 64.9943 90.3776 64.3009C90.2043 63.6076 89.9009 62.9575 89.4459 62.3292C89.1643 62.1558 88.9043 62.0692 88.6659 62.0692C88.6009 62.0692 88.2109 62.1558 87.5175 62.3292C85.7191 63.4342 84.3324 64.8426 83.3791 66.576C82.4257 68.2877 81.949 70.1294 81.949 72.1228C81.949 72.5778 81.949 72.9029 81.9924 73.1195C80.779 73.5745 79.5223 73.9429 78.2006 74.2029C76.8789 74.4846 75.5572 74.6146 74.1921 74.6146C73.3904 74.6146 72.5237 74.5496 71.592 74.3979C70.6603 74.2679 69.8586 74.0512 69.2086 73.7696C67.8869 73.2062 66.8469 72.2528 66.0885 70.8661C65.5035 69.7828 65.0918 68.4827 64.8318 66.9227L63.6401 44.0853L62.5567 36.7617C62.1017 37.0651 61.7117 37.5851 61.365 38.2784C61.1917 38.6684 60.9317 39.2101 60.585 39.9468C61.17 43.8036 61.6251 47.162 61.9067 50.0438C62.2101 52.9256 62.3401 55.8073 62.3401 58.7324C62.4484 61.9175 62.5567 65.1026 62.7084 68.3094C63.0118 71.9495 64.0735 74.7446 65.8719 76.673C66.8469 77.3663 67.8869 77.8863 69.0136 78.2114C70.1403 78.5364 71.3104 78.7097 72.5237 78.7097C72.7621 78.7097 73.1087 78.7097 73.5421 78.688C73.9754 78.688 74.7121 78.5797 75.7305 78.428C76.7489 78.2764 77.9839 77.9947 79.3923 77.6263C79.674 77.5613 81.624 76.933 85.2641 75.7629C86.0225 76.283 86.8458 76.6513 87.7342 76.8896C88.6226 77.128 89.5976 77.2363 90.681 77.2363C92.696 77.2363 94.5594 76.868 96.2928 76.153C97.4629 75.3513 98.3079 74.2896 98.7846 72.9245C99.2612 71.5811 99.5213 70.0644 99.5213 68.396L97.3979 45.5587L97.9612 44.4103L100.085 46.902L100.106 46.837ZM75.3622 54.854C75.0588 56.3057 74.7121 57.3674 74.3438 58.0607C73.9754 58.7324 73.4988 59.2741 72.9137 59.6424C73.9538 58.4291 74.4738 56.9123 74.4738 55.0706C74.4738 54.5073 74.4521 54.0739 74.3871 53.7706C74.3438 53.4672 74.1921 52.9906 73.9538 52.3622C73.6071 51.6255 73.3038 51.0838 73.0437 50.6938C72.7837 50.3038 72.5021 49.9788 72.1771 49.6971C72.2854 49.3938 72.4371 49.1338 72.6537 48.9171C72.8704 48.7004 73.1087 48.6138 73.3904 48.6138C74.0404 49.5238 74.5605 50.3905 74.9071 51.2355C75.2538 52.0805 75.4272 53.0122 75.4272 54.0089C75.4272 54.3989 75.4272 54.6589 75.3838 54.8323L75.3622 54.854ZM81.9707 61.2025L81.4507 62.5025C81.3207 62.4592 81.0607 62.3509 80.6923 62.1558C80.324 61.9608 80.0423 61.8308 79.8256 61.7658C79.1756 63.7376 78.5256 65.7093 77.8972 67.6377C77.6156 67.3343 77.3556 66.8577 77.1172 66.2293C76.5322 64.6259 76.2072 63.7809 76.1205 63.6726C75.9905 63.9109 75.7522 64.0409 75.4488 64.0409C75.3188 64.0409 75.1671 64.0192 75.0155 63.9542C74.8638 63.9109 74.7555 63.8676 74.6688 63.8676C74.4955 63.7376 74.4088 63.5426 74.4088 63.3042C74.6471 62.7192 74.7771 62.2642 74.7771 61.9608C75.0805 61.4408 75.4272 61.1808 75.8172 61.1808C76.0338 61.1808 76.2072 61.3325 76.3372 61.6575C76.6839 62.1775 77.0089 62.8275 77.3339 63.5859C77.6372 64.3443 77.9189 65.1026 78.1572 65.8176C78.2872 65.601 78.5473 64.6476 78.8939 62.9359C79.2406 61.2242 79.7173 60.3575 80.3456 60.3575C80.7573 60.3575 81.299 60.6391 81.949 61.1808L81.9707 61.2025ZM55.6665 44.6703L53.1748 47.8987C52.0914 47.4871 51.2897 47.162 50.7264 46.9454C50.163 46.7287 49.7297 46.4253 49.4263 46.0353L47.2379 48.6354C47.2379 48.6354 46.5662 48.3321 45.3095 47.8121C44.5078 47.4654 44.0528 47.0754 43.9662 46.6204L46.6096 43.4569L49.6213 44.497L52.2214 42.4602C52.2214 42.4602 53.0664 43.0236 54.4532 43.8686C55.1465 44.2803 55.5365 44.562 55.6449 44.692L55.6665 44.6703ZM49.6213 36.1984C46.3712 37.3034 43.1211 38.4084 39.8927 39.5351C36.0142 40.8568 32.8291 42.1569 30.3807 43.4353C30.2507 43.6519 30.1207 43.8469 30.0124 44.0636C29.904 44.2803 29.9257 44.4536 30.0557 44.627C35.4292 42.2002 41.6044 39.9251 48.5596 37.8234C49.318 37.4334 49.6647 36.9134 49.5997 36.22L49.6213 36.1984ZM39.3293 50.5421L39.026 51.7989C38.8093 51.8422 38.5277 51.7555 38.1593 51.5822C37.791 51.4088 37.5093 51.4088 37.2926 51.5822C36.8159 52.1672 36.4476 53.2072 36.2092 54.7023C35.9709 56.1973 35.7759 57.0857 35.6459 57.4107C35.3426 57.1724 34.8225 56.2407 34.0858 54.6589C33.5225 53.4889 32.7425 52.8822 31.7458 52.8822C31.5724 52.7089 31.4858 52.4489 31.4858 52.1022C31.4858 51.8855 31.4858 51.7122 31.5291 51.5388C31.5724 51.3655 31.6591 51.0622 31.8324 50.6505C32.6991 50.5205 33.4358 51.0405 34.0208 52.2539C34.4975 53.2506 34.9959 54.2689 35.4726 55.2656C35.7759 53.9223 36.0359 52.9039 36.2092 52.2539C36.5559 51.0838 37.1193 50.3038 37.8776 49.9138C38.181 49.8705 38.506 49.9571 38.8093 50.1738C38.9393 50.2821 39.1127 50.3905 39.3293 50.5421ZM60.6067 75.8063C60.2167 76.218 59.74 76.608 59.155 76.9763C58.57 77.3447 57.9633 77.648 57.3349 77.8863C57.0966 77.9947 56.6199 78.168 55.9049 78.428C55.1898 78.688 54.4532 78.948 53.6948 79.2297C54.0848 78.753 54.5182 78.3414 55.0165 78.0164C55.5149 77.6913 56.1432 77.3663 56.8582 77.063C58.1149 76.6513 59.35 76.2396 60.6067 75.8063ZM27.4123 50.7588L25.6356 53.8789C25.2889 53.6406 24.7472 53.3372 23.9889 52.9689C23.2522 52.6005 22.6888 52.3405 22.2988 52.1672C22.5371 51.5388 22.8622 50.9538 23.2955 50.3905C23.5772 50.0005 24.0322 49.5021 24.7039 48.8738C25.3972 49.1771 25.8956 49.4154 26.2206 49.5454C26.8489 49.8488 27.239 50.2605 27.4123 50.7372V50.7588ZM23.9889 40.6618C23.5772 39.5135 22.7322 38.3651 21.4971 37.2384C21.1938 37.0651 20.8688 36.9784 20.5654 36.9784C19.9804 36.9784 19.5687 37.6067 19.352 38.8418C19.1354 40.0985 18.8537 40.8568 18.5504 41.1385C18.5504 41.5502 18.7237 41.8752 19.0704 42.0702C19.2437 42.1785 19.547 42.3302 19.9587 42.5469C18.3337 44.1719 16.2753 45.862 13.7619 47.5954C12.3318 48.5704 10.2951 49.9355 7.63 51.7122C10.2301 50.5638 12.5485 49.3288 14.6069 48.0287C16.9686 46.512 19.027 44.757 20.8038 42.7852C21.2588 43.3053 21.7788 43.5653 22.3638 43.5653C22.6021 43.5653 22.7972 43.5219 22.9272 43.4569C23.3822 43.2186 23.6638 42.8286 23.7505 42.2869C23.8589 41.7452 23.9455 41.2252 24.0105 40.7052L23.9889 40.6618ZM55.2982 81.2231C53.6731 82.2632 51.8097 82.7832 49.7297 82.7832C49.253 82.7832 48.8846 82.7832 48.6463 82.7398C47.8446 82.4582 47.4546 82.1548 47.4546 81.8081C47.4546 81.5698 47.9746 81.0714 48.993 80.2914C50.0113 79.5331 50.488 78.8614 50.423 78.3197C49.9464 78.038 49.5563 77.8647 49.253 77.778C48.9496 77.6913 48.5596 77.6913 48.083 77.7563C47.8446 77.7997 47.6063 77.9514 47.3463 78.2547C47.1079 78.558 46.9563 78.818 46.9346 79.0564C47.5846 79.0564 48.083 79.0781 48.3863 79.1431C48.6896 79.1864 48.863 79.3164 48.863 79.4897C48.213 80.0531 47.5846 80.5731 46.9996 81.0931C46.4146 81.6131 46.1112 82.0898 46.1112 82.5448C46.1112 82.7832 46.1546 82.9565 46.2196 83.0648C46.6096 83.4765 46.9996 83.7582 47.4113 83.9315C47.8229 84.0832 48.3213 84.1699 48.928 84.1699C49.2747 84.1699 49.7513 84.1265 50.3797 84.0615C51.9397 83.7149 52.9364 83.4549 53.3481 83.2815C54.4315 82.8265 55.0815 82.1548 55.3199 81.2448L55.2982 81.2231ZM22.1038 51.7989C21.4538 52.9039 20.8038 54.0089 20.1754 55.1356C19.6554 55.0273 18.9187 54.7456 17.9437 54.3123C17.2936 54.0089 16.8386 53.8139 16.6003 53.7489C16.947 52.9906 17.2503 52.3839 17.5103 51.9505C17.7703 51.5172 18.1387 50.9755 18.637 50.3038C19.3954 50.4771 20.0671 50.6722 20.6738 50.9105C21.2588 51.1272 21.7571 51.4305 22.1255 51.8205L22.1038 51.7989ZM58.0283 68.8077C54.9732 68.8077 51.5714 68.5477 47.7796 68.0494C44.0095 67.551 40.3694 67.0527 36.9026 66.576C38.766 65.6443 40.8894 64.1492 43.2511 62.1125C45.2012 60.3791 47.1513 58.6241 49.123 56.869C49.6863 57.2157 50.0547 57.7357 50.2714 58.4291C50.4447 59.5124 50.618 60.5525 50.7914 61.5925C51.2681 60.7258 51.6581 59.8808 51.9397 59.0791C52.2214 58.2557 52.3514 57.4107 52.3514 56.5007C52.3514 55.7423 52.2214 55.0056 51.9831 54.3123L51.0514 53.0122C50.1414 53.3589 49.188 54.0306 48.1913 55.049C45.4179 57.7574 43.9878 59.1441 43.9228 59.2091C42.9261 60.0324 40.9327 61.2458 37.986 62.8059C33.5225 65.1893 30.9007 67.7677 30.1424 70.4978C30.9441 70.3894 31.7458 70.3461 32.5258 70.3461C33.9125 70.3461 35.5592 70.4761 37.466 70.7578C38.441 70.8878 40.066 71.1695 42.3628 71.5812C41.2794 72.1662 40.2177 72.7512 39.1343 73.3579C36.9243 74.5062 34.9525 75.0696 33.2625 75.0696C32.6775 75.0696 31.8974 74.9829 30.9224 74.7879C29.9474 74.5929 28.9723 74.0079 28.019 73.0545C26.8706 71.8845 25.8956 70.1294 25.0506 67.811C24.7689 67.746 24.5955 67.7027 24.5305 67.7027C24.1189 67.7027 23.6855 67.8327 23.2305 68.1144C23.1005 68.2227 22.7538 68.5044 22.1905 68.9377C21.2804 69.7611 20.0887 71.9278 18.5937 75.4379C17.4236 78.168 15.8636 79.8147 13.9569 80.3781C12.6785 79.6197 11.6601 78.6447 10.8801 77.4747C10.1217 76.3046 9.58007 75.0046 9.27672 73.5962C8.97338 72.1878 8.80004 70.8228 8.80004 69.5228C8.80004 68.6994 8.84338 67.941 8.90838 67.2693C8.97338 66.5977 9.08172 65.9043 9.21172 65.2109C8.06335 67.5944 7.5 70.1294 7.5 72.7945C7.5 73.5962 7.54333 74.3979 7.65167 75.1779C8.30169 77.8213 8.99505 79.7714 9.73174 81.0498C10.9018 83.1298 12.5268 84.3866 14.5636 84.7982C15.6686 84.1482 16.6003 83.1732 17.3803 81.8948C17.727 81.3315 18.2903 80.1181 19.0487 78.2547C19.6987 76.5863 20.3054 75.3729 20.8254 74.6146C21.6271 73.4662 22.6671 72.5995 23.9455 72.0145C25.4622 74.8963 26.4806 76.5863 26.9573 77.1063C27.824 78.038 28.7123 78.6014 29.644 78.7747C30.5541 78.948 31.3774 79.0347 32.1141 79.0347C33.5658 79.0347 35.1692 78.7314 36.9026 78.103C38.051 77.6913 39.5243 77.0197 41.3227 76.1313C43.6411 74.9829 45.4395 74.2029 46.6746 73.7912C48.6463 73.1412 50.618 72.7945 52.5464 72.7945C52.7198 72.7512 53.0014 72.7512 53.3698 72.7512C53.4131 72.7512 53.7598 72.7729 54.4315 72.8379C55.1032 72.8812 55.6449 72.9245 56.0132 72.9245C56.8366 72.9245 57.3566 72.7079 57.5733 72.2962C57.6816 71.9928 57.7899 71.6678 57.9416 71.3645C58.1149 70.7145 58.2016 70.1294 58.2016 69.6528C58.2016 69.2627 58.1366 69.0027 57.9849 68.8727L58.0283 68.8077ZM17.5753 64.5393C17.5753 65.1026 17.532 65.601 17.4236 66.056C17.3153 66.511 17.0986 66.8793 16.752 67.1393C16.3619 67.1827 16.0153 67.0527 15.7119 66.771C15.4086 66.4893 15.2136 66.2293 15.1486 65.9693C15.0836 65.7093 15.0402 65.3843 15.0402 65.0159C15.0402 64.2142 15.2569 63.3259 15.7119 62.3075C16.1019 61.5708 16.3619 61.0508 16.492 60.7475C16.557 61.0941 16.4269 61.6575 16.0803 62.4375C15.7336 63.2175 15.5603 63.8026 15.5603 64.1709C15.5603 64.7343 15.8419 65.2109 16.3836 65.6226C16.7736 65.6876 17.077 65.5143 17.3153 65.1026C17.3803 64.9293 17.467 64.7343 17.5753 64.5393ZM88.4492 67.6594C88.6226 68.4177 88.7959 69.1761 88.9693 69.9561C88.9693 70.3461 88.7309 70.6278 88.2326 70.8445C87.7125 71.1911 87.2359 71.3645 86.8242 71.3645C85.9142 71.3645 85.2208 70.9528 84.7008 70.1078C84.1808 69.6961 83.9208 69.2627 83.9208 68.8077C83.9208 68.5261 83.9858 68.3094 84.1374 68.136C84.4191 67.681 84.8308 67.2477 85.4158 66.836C85.9792 66.4243 86.5208 66.2076 86.9975 66.2076C87.7992 66.2076 88.2759 66.6843 88.4492 67.6594ZM23.0355 41.5935C22.9922 41.7669 22.8405 41.8535 22.5588 41.8535C22.3855 41.8535 22.1688 41.8102 21.8871 41.7452C21.6704 41.5719 21.5838 41.4419 21.5838 41.3335C21.5838 41.2252 21.6705 41.0518 21.8655 40.8135C22.0605 40.5752 22.1255 40.3585 22.1038 40.1852L23.0355 41.5935ZM20.9988 40.9218C20.8904 40.7485 20.6087 40.6402 20.1321 40.6185C19.6554 40.5752 19.4604 40.4018 19.5254 40.0985C19.6987 39.8168 19.9587 39.6868 20.3054 39.6868C20.8688 39.6868 21.0854 39.9251 20.9771 40.4235V40.9435L20.9988 40.9218Z" fill="white"/>
<path fill-rule="evenodd" clip-rule="evenodd" d="M112.478 47.7904C112.067 47.6604 111.655 47.292 111.287 46.707C110.767 45.8837 110.442 45.3853 110.29 45.2553L109.878 46.0353C109.878 47.8121 110.095 50.5855 110.507 54.3556C110.918 58.1257 111.135 60.9858 111.135 62.9359C111.135 66.7927 111.027 69.5661 110.832 71.2561C110.485 74.1596 109.727 76.7163 108.535 78.9047C108.925 77.973 109.185 76.9547 109.315 75.8713C109.445 74.7879 109.532 73.6179 109.532 72.3612C109.532 71.2561 109.488 69.7611 109.402 67.9194C109.315 66.056 109.272 64.9943 109.272 64.7126L107.408 40.7918C107.278 40.5102 107.191 40.1852 107.191 39.7951C107.191 39.2751 107.452 38.6251 107.95 37.8667C108.448 37.1084 108.817 36.5667 109.012 36.2634C109.922 38.4518 110.615 40.3152 111.092 41.8752C111.72 43.8903 112.175 45.862 112.5 47.8121L112.478 47.7904ZM92.9777 35.2017C93.0427 35.5483 92.9344 35.8517 92.6744 36.1334C92.566 36.2417 92.306 36.4367 91.8943 36.7617C90.291 37.3467 87.7559 38.2568 84.2458 39.4701C79.9556 40.9652 77.3772 41.8535 76.5539 42.1785C73.9104 43.1536 71.397 44.1719 69.0136 45.2553C69.122 44.497 69.6203 43.8903 70.5303 43.4353C71.332 43.0886 72.1337 42.7202 72.9137 42.3519C79.609 39.9901 86.3042 37.6284 92.9777 35.2233V35.2017ZM91.6343 54.7023C91.6993 55.1573 91.6343 55.6123 91.3743 56.089C91.136 56.5657 90.811 56.934 90.3776 57.2157C90.0743 57.259 89.8143 57.1724 89.6409 56.999C89.4676 56.8257 89.3159 56.5657 89.1643 56.219C89.1643 55.569 89.3159 54.919 89.5976 54.2906C89.9009 53.6622 90.2693 53.1206 90.7243 52.6872C90.7243 52.9256 90.5943 53.2939 90.3126 53.7706C90.031 54.2473 89.9009 54.6373 89.9009 54.919C89.9009 55.2006 90.096 55.4606 90.4643 55.699C90.7026 55.699 90.941 55.5473 91.136 55.2656C91.3527 54.9623 91.5043 54.7889 91.6127 54.7239L91.6343 54.7023ZM86.9542 49.5454C86.7375 50.0655 86.4342 50.6288 86.0008 51.2355C85.5675 51.8422 85.1558 52.4272 84.7875 52.9689C84.3324 52.8389 83.7474 52.5139 83.0107 52.0372C82.274 51.5605 81.754 51.2355 81.4507 51.1055C81.624 50.4771 81.9274 49.8705 82.339 49.2854C82.5774 48.9388 83.0541 48.3971 83.7474 47.6821C84.2674 47.8554 84.7875 48.1154 85.3291 48.4837C85.8708 48.8521 86.4125 49.1988 86.9759 49.5454H86.9542ZM100.106 46.837C99.8896 45.3853 99.4346 43.7603 98.6979 41.9402C97.9612 40.1418 97.2679 38.4084 96.5745 36.74C96.1195 37.0217 95.7295 37.4551 95.3828 38.0401C95.0361 38.6251 94.7544 39.2535 94.5594 39.9035C94.9494 43.3269 95.3395 46.772 95.7511 50.1955C96.4012 55.9157 96.8345 59.6858 97.0295 61.5275C97.2245 63.3692 97.5495 66.6193 97.9829 71.2995C97.1595 71.9278 96.2928 72.3612 95.4261 72.6212C94.5594 72.8812 93.5627 73.0112 92.4577 73.0112C91.591 73.0112 90.7026 72.9029 89.8143 72.7078C89.9876 71.6678 90.161 70.5844 90.356 69.4361C90.551 68.2877 90.6376 67.3127 90.6376 66.5327C90.6376 65.7526 90.551 64.9943 90.3776 64.3009C90.2043 63.6076 89.9009 62.9575 89.4459 62.3292C89.1643 62.1558 88.9043 62.0692 88.6659 62.0692C88.6009 62.0692 88.2109 62.1558 87.5175 62.3292C85.7191 63.4342 84.3324 64.8426 83.3791 66.576C82.4257 68.2877 81.949 70.1294 81.949 72.1228C81.949 72.5778 81.949 72.9029 81.9924 73.1195C80.779 73.5745 79.5223 73.9429 78.2006 74.2029C76.8789 74.4846 75.5572 74.6146 74.1921 74.6146C73.3904 74.6146 72.5237 74.5496 71.592 74.3979C70.6603 74.2679 69.8586 74.0512 69.2086 73.7696C67.8869 73.2062 66.8469 72.2528 66.0885 70.8661C65.5035 69.7828 65.0918 68.4827 64.8318 66.9227L63.6401 44.0853L62.5567 36.7617C62.1017 37.0651 61.7117 37.5851 61.365 38.2784C61.1917 38.6684 60.9317 39.2101 60.585 39.9468C61.17 43.8036 61.6251 47.162 61.9067 50.0438C62.2101 52.9256 62.3401 55.8073 62.3401 58.7324C62.4484 61.9175 62.5567 65.1026 62.7084 68.3094C63.0118 71.9495 64.0735 74.7446 65.8719 76.673C66.8469 77.3663 67.8869 77.8863 69.0136 78.2114C70.1403 78.5364 71.3104 78.7097 72.5237 78.7097C72.7621 78.7097 73.1087 78.7097 73.5421 78.688C73.9754 78.688 74.7121 78.5797 75.7305 78.428C76.7489 78.2764 77.9839 77.9947 79.3923 77.6263C79.674 77.5613 81.624 76.933 85.2641 75.7629C86.0225 76.283 86.8458 76.6513 87.7342 76.8896C88.6226 77.128 89.5976 77.2363 90.681 77.2363C92.696 77.2363 94.5594 76.868 96.2928 76.153C97.4629 75.3513 98.3079 74.2896 98.7846 72.9245C99.2612 71.5811 99.5213 70.0644 99.5213 68.396L97.3979 45.5587L97.9612 44.4103L100.085 46.902L100.106 46.837ZM75.3622 54.854C75.0588 56.3057 74.7121 57.3674 74.3438 58.0607C73.9754 58.7324 73.4988 59.2741 72.9137 59.6424C73.9538 58.4291 74.4738 56.9123 74.4738 55.0706C74.4738 54.5073 74.4521 54.0739 74.3871 53.7706C74.3438 53.4672 74.1921 52.9906 73.9538 52.3622C73.6071 51.6255 73.3038 51.0838 73.0437 50.6938C72.7837 50.3038 72.5021 49.9788 72.1771 49.6971C72.2854 49.3938 72.4371 49.1338 72.6537 48.9171C72.8704 48.7004 73.1087 48.6138 73.3904 48.6138C74.0404 49.5238 74.5605 50.3905 74.9071 51.2355C75.2538 52.0805 75.4272 53.0122 75.4272 54.0089C75.4272 54.3989 75.4272 54.6589 75.3838 54.8323L75.3622 54.854ZM81.9707 61.2025L81.4507 62.5025C81.3207 62.4592 81.0607 62.3509 80.6923 62.1558C80.324 61.9608 80.0423 61.8308 79.8256 61.7658C79.1756 63.7376 78.5256 65.7093 77.8972 67.6377C77.6156 67.3343 77.3556 66.8577 77.1172 66.2293C76.5322 64.6259 76.2072 63.7809 76.1205 63.6726C75.9905 63.9109 75.7522 64.0409 75.4488 64.0409C75.3188 64.0409 75.1671 64.0192 75.0155 63.9542C74.8638 63.9109 74.7555 63.8676 74.6688 63.8676C74.4955 63.7376 74.4088 63.5426 74.4088 63.3042C74.6471 62.7192 74.7771 62.2642 74.7771 61.9608C75.0805 61.4408 75.4272 61.1808 75.8172 61.1808C76.0338 61.1808 76.2072 61.3325 76.3372 61.6575C76.6839 62.1775 77.0089 62.8275 77.3339 63.5859C77.6372 64.3443 77.9189 65.1026 78.1572 65.8176C78.2872 65.601 78.5473 64.6476 78.8939 62.9359C79.2406 61.2242 79.7173 60.3575 80.3456 60.3575C80.7573 60.3575 81.299 60.6391 81.949 61.1808L81.9707 61.2025ZM55.6665 44.6703L53.1748 47.8987C52.0914 47.4871 51.2897 47.162 50.7264 46.9454C50.163 46.7287 49.7297 46.4253 49.4263 46.0353L47.2379 48.6354C47.2379 48.6354 46.5662 48.3321 45.3095 47.8121C44.5078 47.4654 44.0528 47.0754 43.9662 46.6204L46.6096 43.4569L49.6213 44.497L52.2214 42.4602C52.2214 42.4602 53.0664 43.0236 54.4532 43.8686C55.1465 44.2803 55.5365 44.562 55.6449 44.692L55.6665 44.6703ZM49.6213 36.1984C46.3712 37.3034 43.1211 38.4084 39.8927 39.5351C36.0142 40.8568 32.8291 42.1569 30.3807 43.4353C30.2507 43.6519 30.1207 43.8469 30.0124 44.0636C29.904 44.2803 29.9257 44.4536 30.0557 44.627C35.4292 42.2002 41.6044 39.9251 48.5596 37.8234C49.318 37.4334 49.6647 36.9134 49.5997 36.22L49.6213 36.1984ZM39.3293 50.5421L39.026 51.7989C38.8093 51.8422 38.5277 51.7555 38.1593 51.5822C37.791 51.4088 37.5093 51.4088 37.2926 51.5822C36.8159 52.1672 36.4476 53.2072 36.2092 54.7023C35.9709 56.1973 35.7759 57.0857 35.6459 57.4107C35.3426 57.1724 34.8225 56.2407 34.0858 54.6589C33.5225 53.4889 32.7425 52.8822 31.7458 52.8822C31.5724 52.7089 31.4858 52.4489 31.4858 52.1022C31.4858 51.8855 31.4858 51.7122 31.5291 51.5388C31.5724 51.3655 31.6591 51.0622 31.8324 50.6505C32.6991 50.5205 33.4358 51.0405 34.0208 52.2539C34.4975 53.2506 34.9959 54.2689 35.4726 55.2656C35.7759 53.9223 36.0359 52.9039 36.2092 52.2539C36.5559 51.0838 37.1193 50.3038 37.8776 49.9138C38.181 49.8705 38.506 49.9571 38.8093 50.1738C38.9393 50.2821 39.1127 50.3905 39.3293 50.5421ZM60.6067 75.8063C60.2167 76.218 59.74 76.608 59.155 76.9763C58.57 77.3447 57.9633 77.648 57.3349 77.8863C57.0966 77.9947 56.6199 78.168 55.9049 78.428C55.1898 78.688 54.4532 78.948 53.6948 79.2297C54.0848 78.753 54.5182 78.3414 55.0165 78.0164C55.5149 77.6913 56.1432 77.3663 56.8582 77.063C58.1149 76.6513 59.35 76.2396 60.6067 75.8063ZM27.4123 50.7588L25.6356 53.8789C25.2889 53.6406 24.7472 53.3372 23.9889 52.9689C23.2522 52.6005 22.6888 52.3405 22.2988 52.1672C22.5371 51.5388 22.8622 50.9538 23.2955 50.3905C23.5772 50.0005 24.0322 49.5021 24.7039 48.8738C25.3972 49.1771 25.8956 49.4154 26.2206 49.5454C26.8489 49.8488 27.239 50.2605 27.4123 50.7372V50.7588ZM23.9889 40.6618C23.5772 39.5135 22.7322 38.3651 21.4971 37.2384C21.1938 37.0651 20.8688 36.9784 20.5654 36.9784C19.9804 36.9784 19.5687 37.6067 19.352 38.8418C19.1354 40.0985 18.8537 40.8568 18.5504 41.1385C18.5504 41.5502 18.7237 41.8752 19.0704 42.0702C19.2437 42.1785 19.547 42.3302 19.9587 42.5469C18.3337 44.1719 16.2753 45.862 13.7619 47.5954C12.3318 48.5704 10.2951 49.9355 7.63 51.7122C10.2301 50.5638 12.5485 49.3288 14.6069 48.0287C16.9686 46.512 19.027 44.757 20.8038 42.7852C21.2588 43.3053 21.7788 43.5653 22.3638 43.5653C22.6021 43.5653 22.7972 43.5219 22.9272 43.4569C23.3822 43.2186 23.6638 42.8286 23.7505 42.2869C23.8589 41.7452 23.9455 41.2252 24.0105 40.7052L23.9889 40.6618ZM55.2982 81.2231C53.6731 82.2632 51.8097 82.7832 49.7297 82.7832C49.253 82.7832 48.8846 82.7832 48.6463 82.7398C47.8446 82.4582 47.4546 82.1548 47.4546 81.8081C47.4546 81.5698 47.9746 81.0714 48.993 80.2914C50.0113 79.5331 50.488 78.8614 50.423 78.3197C49.9464 78.038 49.5563 77.8647 49.253 77.778C48.9496 77.6913 48.5596 77.6913 48.083 77.7563C47.8446 77.7997 47.6063 77.9514 47.3463 78.2547C47.1079 78.558 46.9563 78.818 46.9346 79.0564C47.5846 79.0564 48.083 79.0781 48.3863 79.1431C48.6896 79.1864 48.863 79.3164 48.863 79.4897C48.213 80.0531 47.5846 80.5731 46.9996 81.0931C46.4146 81.6131 46.1112 82.0898 46.1112 82.5448C46.1112 82.7832 46.1546 82.9565 46.2196 83.0648C46.6096 83.4765 46.9996 83.7582 47.4113 83.9315C47.8229 84.0832 48.3213 84.1699 48.928 84.1699C49.2747 84.1699 49.7513 84.1265 50.3797 84.0615C51.9397 83.7149 52.9364 83.4549 53.3481 83.2815C54.4315 82.8265 55.0815 82.1548 55.3199 81.2448L55.2982 81.2231ZM22.1038 51.7989C21.4538 52.9039 20.8038 54.0089 20.1754 55.1356C19.6554 55.0273 18.9187 54.7456 17.9437 54.3123C17.2936 54.0089 16.8386 53.8139 16.6003 53.7489C16.947 52.9906 17.2503 52.3839 17.5103 51.9505C17.7703 51.5172 18.1387 50.9755 18.637 50.3038C19.3954 50.4771 20.0671 50.6722 20.6738 50.9105C21.2588 51.1272 21.7571 51.4305 22.1255 51.8205L22.1038 51.7989ZM58.0283 68.8077C54.9732 68.8077 51.5714 68.5477 47.7796 68.0494C44.0095 67.551 40.3694 67.0527 36.9026 66.576C38.766 65.6443 40.8894 64.1492 43.2511 62.1125C45.2012 60.3791 47.1513 58.6241 49.123 56.869C49.6863 57.2157 50.0547 57.7357 50.2714 58.4291C50.4447 59.5124 50.618 60.5525 50.7914 61.5925C51.2681 60.7258 51.6581 59.8808 51.9397 59.0791C52.2214 58.2557 52.3514 57.4107 52.3514 56.5007C52.3514 55.7423 52.2214 55.0056 51.9831 54.3123L51.0514 53.0122C50.1414 53.3589 49.188 54.0306 48.1913 55.049C45.4179 57.7574 43.9878 59.1441 43.9228 59.2091C42.9261 60.0324 40.9327 61.2458 37.986 62.8059C33.5225 65.1893 30.9007 67.7677 30.1424 70.4978C30.9441 70.3894 31.7458 70.3461 32.5258 70.3461C33.9125 70.3461 35.5592 70.4761 37.466 70.7578C38.441 70.8878 40.066 71.1695 42.3628 71.5812C41.2794 72.1662 40.2177 72.7512 39.1343 73.3579C36.9243 74.5062 34.9525 75.0696 33.2625 75.0696C32.6775 75.0696 31.8974 74.9829 30.9224 74.7879C29.9474 74.5929 28.9723 74.0079 28.019 73.0545C26.8706 71.8845 25.8956 70.1294 25.0506 67.811C24.7689 67.746 24.5955 67.7027 24.5305 67.7027C24.1189 67.7027 23.6855 67.8327 23.2305 68.1144C23.1005 68.2227 22.7538 68.5044 22.1905 68.9377C21.2804 69.7611 20.0887 71.9278 18.5937 75.4379C17.4236 78.168 15.8636 79.8147 13.9569 80.3781C12.6785 79.6197 11.6601 78.6447 10.8801 77.4747C10.1217 76.3046 9.58007 75.0046 9.27672 73.5962C8.97338 72.1878 8.80004 70.8228 8.80004 69.5228C8.80004 68.6994 8.84338 67.941 8.90838 67.2693C8.97338 66.5977 9.08172 65.9043 9.21172 65.2109C8.06335 67.5944 7.5 70.1294 7.5 72.7945C7.5 73.5962 7.54333 74.3979 7.65167 75.1779C8.30169 77.8213 8.99505 79.7714 9.73174 81.0498C10.9018 83.1298 12.5268 84.3866 14.5636 84.7982C15.6686 84.1482 16.6003 83.1732 17.3803 81.8948C17.727 81.3315 18.2903 80.1181 19.0487 78.2547C19.6987 76.5863 20.3054 75.3729 20.8254 74.6146C21.6271 73.4662 22.6671 72.5995 23.9455 72.0145C25.4622 74.8963 26.4806 76.5863 26.9573 77.1063C27.824 78.038 28.7123 78.6014 29.644 78.7747C30.5541 78.948 31.3774 79.0347 32.1141 79.0347C33.5658 79.0347 35.1692 78.7314 36.9026 78.103C38.051 77.6913 39.5243 77.0197 41.3227 76.1313C43.6411 74.9829 45.4395 74.2029 46.6746 73.7912C48.6463 73.1412 50.618 72.7945 52.5464 72.7945C52.7198 72.7512 53.0014 72.7512 53.3698 72.7512C53.4131 72.7512 53.7598 72.7729 54.4315 72.8379C55.1032 72.8812 55.6449 72.9245 56.0132 72.9245C56.8366 72.9245 57.3566 72.7079 57.5733 72.2962C57.6816 71.9928 57.7899 71.6678 57.9416 71.3645C58.1149 70.7145 58.2016 70.1294 58.2016 69.6528C58.2016 69.2627 58.1366 69.0027 57.9849 68.8727L58.0283 68.8077ZM17.5753 64.5393C17.5753 65.1026 17.532 65.601 17.4236 66.056C17.3153 66.511 17.0986 66.8793 16.752 67.1393C16.3619 67.1827 16.0153 67.0527 15.7119 66.771C15.4086 66.4893 15.2136 66.2293 15.1486 65.9693C15.0836 65.7093 15.0402 65.3843 15.0402 65.0159C15.0402 64.2142 15.2569 63.3259 15.7119 62.3075C16.1019 61.5708 16.3619 61.0508 16.492 60.7475C16.557 61.0941 16.4269 61.6575 16.0803 62.4375C15.7336 63.2175 15.5603 63.8026 15.5603 64.1709C15.5603 64.7343 15.8419 65.2109 16.3836 65.6226C16.7736 65.6876 17.077 65.5143 17.3153 65.1026C17.3803 64.9293 17.467 64.7343 17.5753 64.5393ZM88.4492 67.6594C88.6226 68.4177 88.7959 69.1761 88.9693 69.9561C88.9693 70.3461 88.7309 70.6278 88.2326 70.8445C87.7125 71.1911 87.2359 71.3645 86.8242 71.3645C85.9142 71.3645 85.2208 70.9528 84.7008 70.1078C84.1808 69.6961 83.9208 69.2627 83.9208 68.8077C83.9208 68.5261 83.9858 68.3094 84.1374 68.136C84.4191 67.681 84.8308 67.2477 85.4158 66.836C85.9792 66.4243 86.5208 66.2076 86.9975 66.2076C87.7992 66.2076 88.2759 66.6843 88.4492 67.6594ZM23.0355 41.5935C22.9922 41.7669 22.8405 41.8535 22.5588 41.8535C22.3855 41.8535 22.1688 41.8102 21.8871 41.7452C21.6704 41.5719 21.5838 41.4419 21.5838 41.3335C21.5838 41.2252 21.6705 41.0518 21.8655 40.8135C22.0605 40.5752 22.1255 40.3585 22.1038 40.1852L23.0355 41.5935ZM20.9988 40.9218C20.8904 40.7485 20.6087 40.6402 20.1321 40.6185C19.6554 40.5752 19.4604 40.4018 19.5254 40.0985C19.6987 39.8168 19.9587 39.6868 20.3054 39.6868C20.8688 39.6868 21.0854 39.9251 20.9771 40.4235V40.9435L20.9988 40.9218Z" fill="url(#paint0_linear_281_1570)"/>
</g>
</g>
<defs>
<linearGradient id="paint0_linear_281_1570" x1="44.8333" y1="49.134" x2="123.474" y2="165.607" gradientUnits="userSpaceOnUse">
<stop stop-color="#FFCC40"/>
<stop offset="1" stop-color="#9B7A2F"/>
</linearGradient>
</defs>
</svg>
