<svg width="33" height="32" viewBox="0 0 33 32" fill="none" xmlns="http://www.w3.org/2000/svg">
<g id="Icon">
<g id="Group">
<path id="Vector" d="M25.229 4.14037L22.1535 5.33598L21.5524 4L20.1879 4.14367C18.8188 4.28729 17.6265 4.76807 16.4864 5.64304C15.3461 4.76592 14.1622 4.28558 12.8119 4.14362L11.4469 4L10.8463 5.33598L7.77016 4.14037L1.99989 17.2255L5.44546 18.5025V28L16.4857 22.6353L27.526 28V18.5113L30.9999 17.2259L25.229 4.14037ZM7.14399 25.3292V19.1326L14.3774 21.8143L7.14399 25.3292ZM15.6366 20.514L4.25776 16.2954L8.67839 6.27084L10.165 6.84911L6.36785 15.2891L15.6365 18.7534L15.6366 20.514ZM15.6366 16.9844L9.23992 14.5937C10.3327 14.0509 11.6303 13.9806 12.8147 14.449L15.6365 15.6495L15.6366 16.9844ZM15.6366 13.8476L13.467 12.9247C12.1229 12.3899 10.673 12.3531 9.35723 12.7647L12.5038 5.77179C12.6786 5.81506 14.0265 5.77333 15.6366 7.10111V13.8476ZM17.3349 7.10216C18.9149 5.80581 20.4063 5.79397 20.4959 5.77184L23.6295 12.7376C22.3897 12.3536 21.0416 12.4054 19.7355 12.9247L17.3349 13.88V7.10216ZM17.3349 15.6639L20.3786 14.4527C21.5296 13.9944 22.7306 14.0544 23.7729 14.587L17.3349 16.9861V15.6639ZM25.8275 25.3291L18.5958 21.8149L25.8275 19.1395V25.3291ZM17.3349 20.5151V18.7538L26.6319 15.2897L22.8341 6.84911L24.3209 6.2709L28.7416 16.295L17.3349 20.5151Z" fill="#BFBFBF"/>
</g>
</g>
</svg>
