<svg width="33" height="32" viewBox="0 0 33 32" fill="none" xmlns="http://www.w3.org/2000/svg">
<g id="mosque">
<mask id="mask0_62_225" style="mask-type:alpha" maskUnits="userSpaceOnUse" x="0" y="0" width="33" height="32">
<rect id="Bounding box" x="0.700012" width="32" height="32" fill="#D9D9D9"/>
</mask>
<g mask="url(#mask0_62_225)">
<path id="mosque_2" d="M2.36666 27.6667V11.441C1.96666 11.2222 1.64444 10.9339 1.39999 10.5759C1.15555 10.218 1.03333 9.80381 1.03333 9.33337C1.03333 8.8821 1.25299 8.34322 1.69233 7.71674C2.13164 7.09025 2.68975 6.45392 3.36666 5.80777C4.04357 6.45392 4.60168 7.09025 5.04099 7.71674C5.4803 8.34322 5.69996 8.8821 5.69996 9.33337C5.69996 9.80381 5.57774 10.218 5.33329 10.5759C5.08885 10.9339 4.76662 11.2222 4.36663 11.441V17.6667H7.70003V14.6667C7.70003 14.1282 7.87566 13.6355 8.22692 13.1885C8.57821 12.7415 9.05728 12.4701 9.66412 12.3744H10.1257C9.77011 11.971 9.49917 11.5236 9.31286 11.0321C9.12652 10.5406 9.03336 10.0188 9.03336 9.4667C9.03336 8.63568 9.2317 7.86698 9.62839 7.1606C10.0251 6.45422 10.5575 5.8725 11.2257 5.41544L16.7 1.73083L22.1743 5.41544C22.8425 5.8725 23.3749 6.45422 23.7716 7.1606C24.1683 7.86698 24.3666 8.63568 24.3666 9.4667C24.3666 10.0188 24.2735 10.5406 24.0871 11.0321C23.9008 11.5236 23.6299 11.971 23.2743 12.3744H23.7359C24.3427 12.4701 24.8218 12.7415 25.1731 13.1885C25.5243 13.6355 25.7 14.1282 25.7 14.6667V17.6667H29.0334V11.441C28.6334 11.2222 28.3111 10.9339 28.0667 10.5759C27.8222 10.218 27.7 9.80381 27.7 9.33337C27.7 8.8821 27.9197 8.34322 28.359 7.71674C28.7983 7.09025 29.3564 6.45392 30.0333 5.80777C30.7102 6.45392 31.2683 7.09025 31.7077 7.71674C32.147 8.34322 32.3666 8.8821 32.3666 9.33337C32.3666 9.80381 32.2444 10.218 32 10.5759C31.7555 10.9339 31.4333 11.2222 31.0333 11.441V27.6667H18.3667V22.6667C18.3667 22.2035 18.2047 21.8099 17.8808 21.4859C17.5568 21.162 17.1632 21 16.7 21C16.2367 21 15.8431 21.162 15.5192 21.4859C15.1953 21.8099 15.0333 22.2035 15.0333 22.6667V27.6667H2.36666ZM13.9 12.3334H19.5C20.2966 12.3334 20.9735 12.0548 21.5308 11.4975C22.0881 10.9402 22.3667 10.2639 22.3667 9.46867C22.3667 8.97162 22.2539 8.51199 22.0282 8.08977C21.8026 7.66755 21.4863 7.32139 21.0795 7.0513L16.7 4.1359L12.3205 7.0513C11.9136 7.32139 11.5974 7.66755 11.3718 8.08977C11.1461 8.51199 11.0333 8.97162 11.0333 9.46867C11.0333 10.2639 11.3119 10.9402 11.8692 11.4975C12.4265 12.0548 13.1034 12.3334 13.9 12.3334ZM4.36663 25.6667H13.0334V22.6667C13.0334 21.6482 13.3897 20.7825 14.1024 20.0695C14.815 19.3565 15.6804 19.0001 16.6985 19.0001C17.7166 19.0001 18.5825 19.3565 19.2961 20.0695C20.0098 20.7825 20.3666 21.6482 20.3666 22.6667V25.6667H29.0334V19.6667H23.7V14.6667C23.7 14.5727 23.668 14.4936 23.6039 14.4295C23.5397 14.3654 23.4607 14.3333 23.3667 14.3333H10.0333C9.9393 14.3333 9.86024 14.3654 9.79612 14.4295C9.73201 14.4936 9.69996 14.5727 9.69996 14.6667V19.6667H4.36663V25.6667Z" fill="#BFBFBF"/>
</g>
</g>
</svg>
