<svg width="20" height="14" viewBox="0 0 20 14" fill="none" xmlns="http://www.w3.org/2000/svg">
<path id="Vector" d="M16.48 9.64C17.14 9.39 17.72 8.98 18.18 8.52C19.11 7.49 19.72 6.26 19.72 4.82C19.72 3.38 18.59 2.25 17.15 2.25H16.59C16.2628 1.57608 15.7526 1.00775 15.1178 0.609896C14.483 0.212044 13.7492 0.000702364 13 0H7C5.42 0 4.06 0.92 3.41 2.25H2.85C1.41 2.25 0.279999 3.38 0.279999 4.82C0.279999 6.26 0.889999 7.49 1.82 8.52C2.28 8.98 2.86 9.39 3.52 9.64C4.04238 10.9299 4.93844 12.0343 6.0931 12.8112C7.24776 13.5881 8.6083 14.0021 10 14C12.94 14 15.44 12.2 16.48 9.64ZM12.84 6.45L12.22 7.21C12.12 7.32 12.05 7.54 12.06 7.69L12.12 8.67C12.16 9.27 11.73 9.58 11.17 9.36L10.26 9C10.0903 8.95 9.90973 8.95 9.74 9L8.83 9.36C8.27 9.58 7.84 9.27 7.88 8.67L7.94 7.69C7.94379 7.51631 7.88725 7.34668 7.78 7.21L7.16 6.45C6.77 5.99 6.94 5.48 7.52 5.33L8.47 5.09C8.62 5.05 8.8 4.91 8.88 4.78L9.41 3.96C9.74 3.45 10.26 3.45 10.59 3.96L11.12 4.78C11.2 4.91 11.38 5.05 11.53 5.09L12.48 5.33C13.06 5.48 13.23 5.99 12.84 6.45Z" fill="#3384FF"/>
</svg>
