<svg width="33" height="32" viewBox="0 0 33 32" fill="none" xmlns="http://www.w3.org/2000/svg">
<g id="settings">
<mask id="mask0_62_29" style="mask-type:alpha" maskUnits="userSpaceOnUse" x="0" y="0" width="33" height="32">
<rect id="Bounding box" x="0.299999" width="32" height="32" fill="#D9D9D9"/>
</mask>
<g mask="url(#mask0_62_29)">
<path id="settings_2" d="M13.2231 28.6666L12.7154 24.6051C12.3582 24.4854 11.9919 24.3179 11.6167 24.1025C11.2415 23.8871 10.906 23.6564 10.6103 23.4102L6.84873 24.9999L3.77187 19.6667L7.0257 17.2077C6.99492 17.0094 6.97312 16.8103 6.9603 16.6103C6.94748 16.4103 6.94107 16.2111 6.94107 16.0128C6.94107 15.8231 6.94748 15.6303 6.9603 15.4346C6.97312 15.2389 6.99492 15.0248 7.0257 14.7923L3.77187 12.3333L6.84873 7.02571L10.5974 8.60264C10.9188 8.34793 11.262 8.11502 11.6269 7.90391C11.9919 7.69277 12.3505 7.52311 12.7026 7.39491L13.2231 3.33337H19.3769L19.8846 7.40774C20.2846 7.55303 20.6465 7.72269 20.9705 7.91671C21.2944 8.11073 21.6214 8.33937 21.9513 8.60264L25.7513 7.02571L28.8281 12.3333L25.523 14.8307C25.5709 15.0461 25.597 15.2474 25.6012 15.4346C25.6055 15.6218 25.6076 15.8103 25.6076 16C25.6076 16.1812 25.6034 16.3654 25.5948 16.5526C25.5863 16.7398 25.5555 16.9539 25.5025 17.1949L28.782 19.6667L25.7051 24.9999L21.9513 23.3974C21.6214 23.6606 21.2846 23.8936 20.941 24.0961C20.5974 24.2987 20.2453 24.4641 19.8846 24.5923L19.3769 28.6666H13.2231ZM16.3154 20C17.4248 20 18.3688 19.6107 19.1474 18.832C19.926 18.0534 20.3153 17.1094 20.3153 16C20.3153 14.8906 19.926 13.9466 19.1474 13.168C18.3688 12.3894 17.4248 12 16.3154 12C15.1923 12 14.2449 12.3894 13.4731 13.168C12.7013 13.9466 12.3154 14.8906 12.3154 16C12.3154 17.1094 12.7013 18.0534 13.4731 18.832C14.2449 19.6107 15.1923 20 16.3154 20ZM16.3154 18C15.7598 18 15.2876 17.8056 14.8987 17.4167C14.5098 17.0278 14.3154 16.5556 14.3154 16C14.3154 15.4445 14.5098 14.9722 14.8987 14.5833C15.2876 14.1945 15.7598 14 16.3154 14C16.8709 14 17.3431 14.1945 17.732 14.5833C18.1209 14.9722 18.3154 15.4445 18.3154 16C18.3154 16.5556 18.1209 17.0278 17.732 17.4167C17.3431 17.8056 16.8709 18 16.3154 18ZM14.9667 26.6667H17.5872L18.0667 23.0949C18.747 22.9171 19.3688 22.6645 19.932 22.3372C20.4953 22.0098 21.0384 21.5889 21.5615 21.0744L24.8744 22.4667L26.1872 20.2L23.2949 18.0205C23.406 17.6752 23.4816 17.3368 23.5218 17.0051C23.562 16.6735 23.582 16.3385 23.582 16C23.582 15.653 23.562 15.318 23.5218 14.9949C23.4816 14.6718 23.406 14.3419 23.2949 14.0051L26.2128 11.8L24.9 9.53334L21.5487 10.9462C21.1026 10.4692 20.568 10.0479 19.9449 9.68207C19.3218 9.31625 18.6914 9.05727 18.0538 8.90514L17.6333 5.33334H14.9872L14.5462 8.89231C13.8658 9.053 13.2376 9.29915 12.6615 9.63077C12.0855 9.9624 11.5359 10.3898 11.0128 10.9128L7.7 9.53334L6.38717 11.8L9.26667 13.9462C9.15555 14.2624 9.07778 14.5915 9.03333 14.9333C8.98889 15.2752 8.96667 15.6351 8.96667 16.0128C8.96667 16.3598 8.98889 16.7 9.03333 17.0333C9.07778 17.3667 9.15128 17.6957 9.25383 18.0205L6.38717 20.2L7.7 22.4667L11 21.0667C11.506 21.5863 12.047 22.012 12.6231 22.3436C13.1991 22.6752 13.8359 22.9299 14.5333 23.1077L14.9667 26.6667Z" fill="#BFBFBF"/>
</g>
</g>
</svg>
