<svg width="87" height="120" viewBox="0 0 87 120" fill="none" xmlns="http://www.w3.org/2000/svg">
<g id="Surah Name - Thuluth Style">
<path id="Vector" fill-rule="evenodd" clip-rule="evenodd" d="M79.2824 44.9016C78.8956 44.7082 78.5329 44.3697 78.1703 43.862C77.7109 43.2092 77.3483 42.7499 77.0581 42.5323L76.1394 43.9829C76.4054 46.5456 76.9614 50.0271 77.7593 54.4756C78.412 58.0296 78.7747 60.1088 78.8714 60.6891C79.1132 62.3815 79.2582 63.7354 79.3549 64.7508C79.4516 65.7662 79.5 66.9267 79.5 68.2323C79.5 69.9246 79.4033 71.4961 79.1857 72.8984C78.9681 74.3006 78.6055 75.8721 78.1219 77.5645L77.4933 78.4832C77.6384 77.7096 77.7593 76.7909 77.8318 75.7513C77.9043 74.7117 77.9527 73.6962 77.9527 72.7291C77.9527 69.8763 77.5659 66.2739 76.7922 61.9463C75.7526 55.9988 75.1482 52.3964 75.0031 51.1634C74.1086 46.2072 73.2382 41.2509 72.392 36.2463C72.7063 35.2067 72.9723 34.433 73.214 33.9253C73.6009 33.0791 74.0602 32.4264 74.6163 31.9428C75.8493 34.9891 77.1065 38.0354 78.3879 41.0575C78.1945 41.2026 78.2186 41.396 78.4362 41.6377C78.678 41.8795 78.678 42.0729 78.4846 42.218C78.7989 42.5323 79.0165 42.9191 79.1857 43.3785C79.3308 43.8378 79.3791 44.3455 79.3066 44.8774L79.2824 44.9016ZM37.8433 31.6769C37.7708 32.1362 37.5774 32.5714 37.2631 32.9582C36.9488 33.3451 36.5619 33.5385 36.1026 33.5385C34.6036 34.0462 33.153 34.5781 31.7507 35.1583C27.2539 37.0925 24.8845 38.1079 24.6186 38.1804C25.4406 36.7782 26.867 35.6902 28.9221 34.8682C30.7111 34.2154 32.4761 33.5627 34.2651 32.8857C34.4102 32.8374 35.1597 32.5472 36.4652 32.0154C36.9971 31.7736 37.4807 31.6769 37.8675 31.6769H37.8433ZM56.943 54.1372C57.0639 54.9592 56.7012 55.4185 55.8792 55.5394C55.0572 55.6603 54.5495 55.9262 54.4044 56.3614C54.4044 57.4494 54.3319 58.3923 54.211 59.2385C54.066 60.0605 53.8242 60.8825 53.4857 61.7045C53.2439 61.366 52.7362 60.399 51.9142 58.8033C51.5999 58.1747 51.2615 57.5944 50.8746 57.0142C50.8021 57.2802 50.6329 57.4252 50.3427 57.4252C50.2218 57.4252 50.0043 57.3769 49.7141 57.3043C49.5207 57.0626 49.424 56.7966 49.424 56.4823C49.424 56.2405 49.5207 55.9504 49.69 55.5636C49.8592 55.1768 49.9559 54.9108 49.9559 54.7416C50.9713 54.4756 51.7934 55.1768 52.4461 56.8208C52.9055 58.0296 53.2681 58.7549 53.4857 59.0209C53.6791 57.9813 53.8726 56.9175 54.066 55.8295C54.4044 54.524 55.0089 53.847 55.8551 53.847C56.121 53.847 56.4837 53.9438 56.9672 54.1372H56.943ZM44.9997 49.9062C44.8062 50.5348 44.6612 51.0425 44.5403 51.4777C44.4194 51.9129 44.1535 52.203 43.7183 52.3481C43.0172 52.1063 42.582 51.5744 42.3886 50.7282C42.3886 49.3018 42.7512 47.9721 43.5007 46.7149C43.4523 46.9083 43.404 47.1984 43.3073 47.5852C43.2106 47.9721 43.1622 48.3589 43.1622 48.7457C43.1622 49.5194 43.404 50.148 43.9117 50.6073C44.1776 50.7282 44.3952 50.6073 44.5161 50.3172C44.6612 50.0029 44.8062 49.882 44.9997 49.9062ZM9.65312 37.6002C9.91907 37.7453 10.0641 38.0112 10.0641 38.3497C10.0641 38.6156 9.87071 39.1475 9.48388 39.9212C9.24211 40.0662 9.00034 40.2113 8.75858 40.3564C8.51681 40.5014 8.27504 40.5014 8.03327 40.3805C7.64644 40.1388 7.3805 39.8728 7.25961 39.5585C7.11455 39.2442 7.0662 38.8332 7.0662 38.3497C7.0662 38.0112 7.11455 37.5277 7.18708 36.8991L8.97617 33.1758C9.0487 33.5627 8.92781 34.2154 8.56516 35.1583C8.22669 36.0771 8.03327 36.754 8.03327 37.1408C8.03327 37.4793 8.1058 37.7936 8.22669 38.0354C8.37175 38.2772 8.61351 38.5189 8.95199 38.7123L9.65312 37.6002ZM24.9087 58.078C24.6669 58.9242 24.1834 59.6253 23.4581 60.2055C22.7328 60.7616 21.8624 61.1001 20.847 61.221C20.8953 60.8341 21.3305 60.4473 22.1767 60.0605C22.6361 59.8187 22.9504 59.5528 23.0954 59.2385C22.5635 59.1659 22.08 59.0934 21.669 59.0451C21.258 58.9967 20.9921 58.9484 20.8954 58.9484C19.9766 58.9484 19.2755 59.1901 18.8161 59.6978C18.937 59.1901 19.1304 58.7549 19.3964 58.3681C19.6623 57.9813 20.0008 57.7153 20.3876 57.5944C20.7745 57.4494 21.2096 57.401 21.669 57.401C22.1284 57.401 22.7086 57.4977 23.3856 57.6912C24.0625 57.8846 24.5702 58.0296 24.9329 58.1022L24.9087 58.078ZM11.8049 46.5215C11.5389 47.3435 11.273 48.1413 11.0554 48.9633C10.6202 49.9787 10.0399 50.4623 9.26629 50.4623C9.02452 50.1238 8.49263 49.7128 7.62227 49.2534C6.7519 48.7941 6.36507 48.3105 6.48595 47.8028L8.75858 44.4422C9.29047 44.6357 9.94324 45.0225 10.6685 45.6027C11.1763 46.0379 11.5631 46.328 11.829 46.5215H11.8049ZM68.0402 65.9113C68.0402 64.4123 67.9918 63.0826 67.8951 61.9463C67.7984 60.81 67.6292 59.6978 67.4116 58.6099C67.4116 58.4165 66.6863 54.7658 65.2115 47.6336C64.7038 45.1676 64.462 42.9675 64.462 41.0817C64.9697 41.6136 65.4774 42.1455 65.961 42.6532C66.2027 42.8949 66.3962 43.1851 66.5412 43.5719C66.3962 42.0971 65.8159 40.2355 64.8488 38.0112C64.2202 36.5848 63.3499 34.7715 62.2377 32.6198L60.7388 35.8595C60.9805 38.6156 61.5366 42.0004 62.4312 46.0137C63.2048 49.3743 64.0026 52.8558 64.8005 56.434C65.6225 60.0121 66.1786 63.3244 66.4929 66.3948C66.6137 66.7333 66.6621 67.0234 66.6621 67.2652C66.6621 68.1597 65.8401 68.9817 64.1719 69.7554C63.2048 70.2148 62.5762 70.5774 62.2619 70.8675C61.174 71.3994 60.0135 71.6895 58.7804 71.6895C58.0551 71.6895 57.2815 71.5687 56.5078 71.3511C55.7342 71.1093 55.1056 70.8192 54.5979 70.4324C51.3582 67.5795 48.0943 64.6783 44.8546 61.777C40.8654 58.2956 37.5532 55.5152 34.8696 53.4119C31.1947 50.559 27.7132 48.1897 24.4252 46.328C28.2209 44.4422 32.8871 42.6773 38.3994 41.0575C43.2347 39.7519 48.0701 38.4222 52.9055 37.1167C53.0264 37.1167 53.4374 37.0683 54.1627 36.9716C54.888 36.8749 55.4199 36.8265 55.8067 36.8265C56.121 36.8265 56.4111 36.8749 56.7012 36.9474C56.9914 37.02 57.2573 37.165 57.4749 37.3584C56.943 38.4464 55.2506 41.2026 52.4219 45.6511C50.2944 49.0117 48.9405 51.8162 48.3602 54.0646C49.013 52.3239 50.3911 50.0513 52.4703 47.2709C54.8638 44.0554 56.4111 41.8795 57.1122 40.719C58.587 38.2046 59.3123 35.7144 59.3123 33.2242C59.1189 32.9099 58.853 32.6923 58.4903 32.5472C58.1519 32.4022 57.7409 32.3538 57.2815 32.3538C56.943 32.3538 56.4111 32.3538 55.71 32.4022C51.9626 33.3209 48.2152 34.2396 44.4436 35.1342C39.9225 36.2463 36.2235 37.3101 33.3706 38.2772C29.3814 39.6311 25.8758 41.13 22.8778 42.7982C22.3701 43.8378 22.0317 44.8291 21.8382 45.7962C21.6448 46.7391 21.4514 48.0204 21.258 49.5919C21.9833 50.3172 24.3043 52.4931 28.2209 56.0955C31.3881 59.0451 33.6849 61.2693 35.063 62.7683C37.3356 65.2343 39.173 67.7245 40.5269 70.1906C38.7862 71.206 36.9246 71.9555 34.9179 72.4632C32.9354 72.9709 30.7595 73.3336 28.4385 73.5753C28.8979 71.7137 29.188 70.5291 29.3089 69.973C29.5748 68.5707 29.7199 67.3135 29.7199 66.2014C29.7199 65.2827 29.6232 64.4123 29.4539 63.6145C29.2847 62.8166 28.9946 62.0672 28.6078 61.3177C27.3747 62.9134 26.1417 64.8233 24.8845 67.0718C23.7966 69.1268 22.7086 71.1577 21.6448 73.1643C20.9921 73.2852 19.9766 73.5028 18.5985 73.7929C17.2205 74.1072 16.1083 74.2523 15.2621 74.2523C14.416 74.2523 13.6665 74.1556 12.9895 73.938C12.3368 73.7204 11.7081 73.3819 11.1279 72.9226C12.1675 72.1973 12.917 71.5928 13.328 71.1335C14.0291 70.4082 14.4885 69.6345 14.7303 68.8125C15.3589 67.507 15.649 66.1289 15.649 64.7024C15.649 62.4298 14.972 60.544 13.6181 59.0692C12.9895 58.4165 12.0708 58.078 10.8378 58.078C10.6444 58.078 10.3542 58.078 9.96742 58.1263C9.07288 58.9 8.37175 59.7704 7.83986 60.7133C7.30797 61.6562 6.89696 62.7441 6.55849 63.953C6.22001 65.1618 6.05077 66.3706 6.0266 67.5553C6.0266 68.74 6.00242 69.9246 6.00242 71.1335C1.16705 73.0193 -1.68582 74.1072 -2.58036 74.3732C-4.36945 74.9534 -6.20688 75.4128 -8.14103 75.7754C-9.54329 76.0172 -10.8972 76.1139 -12.2027 76.1139C-14.1852 76.1139 -15.9985 75.848 -17.6909 75.2919C-19.3833 74.76 -20.9306 73.8896 -22.357 72.6808C-23.0823 71.8346 -23.4691 70.795 -23.4691 69.5378C-23.4691 68.9092 -23.3241 68.1356 -23.0581 67.1685C-22.9856 66.9267 -22.5746 65.742 -21.8493 63.5661C-22.5504 64.4848 -23.179 65.597 -23.7593 66.8783C-24.0736 67.5069 -24.5571 68.6674 -25.2099 70.4082C-25.3549 71.1335 -25.4516 71.6412 -25.4758 71.883C-25.4758 72.1247 -25.5 72.3907 -25.5 72.6566C-25.5 75.0501 -24.5813 77.0084 -22.768 78.5074C-21.2207 79.3294 -19.7459 79.8855 -18.3678 80.224C-16.9656 80.5624 -15.4183 80.7075 -13.7259 80.7075C-12.8072 80.7075 -11.7192 80.635 -10.5104 80.4657C-9.30152 80.3207 -8.26192 80.1273 -7.41573 79.9338C-5.0464 79.402 -1.87923 78.3624 2.10995 76.8634C3.77815 76.2348 5.54306 75.582 7.3805 74.8809C7.6948 75.3886 8.1058 75.9447 8.6377 76.5249C9.16959 77.1293 9.65312 77.5887 10.1125 77.9513C11.3455 78.5799 12.7478 78.8701 14.2951 78.8701C15.5281 78.8701 16.7369 78.725 17.8974 78.4591C19.0579 78.1931 20.2909 77.8305 21.6207 77.3469C21.4272 78.1931 21.3305 78.9668 21.3305 79.6679C21.3305 82.0372 21.9833 84.0681 23.2647 85.7605C24.5702 87.4528 26.1901 88.3232 28.1726 88.3232C28.4143 88.3232 28.8012 88.2749 29.3331 88.2023C30.1793 87.3561 30.832 86.3165 31.2672 85.0593C31.7024 83.8263 31.9442 82.4966 31.9442 81.1185C31.9442 79.958 31.7507 78.7975 31.3639 77.637C33.7332 77.1293 35.4498 76.6941 36.5378 76.3073C38.351 75.6787 39.8983 74.8325 41.1797 73.7446C41.3006 73.2852 41.5182 72.5357 41.8083 71.472C42.1951 69.9246 42.3886 68.6191 42.3886 67.5795C42.3886 66.5399 42.1951 65.5003 41.8083 64.6299C42.2677 64.9442 45.1447 67.5553 50.4636 72.4632C52.3978 74.2523 54.211 75.4853 55.9276 76.1864C56.3144 76.3073 56.6771 76.3798 57.0397 76.4282C57.3782 76.4766 57.7167 76.4766 58.031 76.4766C59.4332 76.4766 60.8838 76.0414 62.4312 75.1952C63.7125 74.4215 64.9939 73.6237 66.2511 72.8259C66.783 71.7863 67.2182 70.6741 67.5325 69.4895C67.8468 68.3048 67.9918 67.0959 67.9918 65.8629L68.0402 65.9113ZM-5.65082 36.3672C-5.72335 36.8024 -5.79588 37.165 -5.89258 37.5035C-5.96511 37.842 -6.13435 37.987 -6.35195 37.987C-6.49701 37.987 -6.66625 37.9145 -6.81131 37.7936C-6.95637 37.6486 -7.14978 37.6002 -7.39155 37.6002H-7.97179C-8.43115 38.253 -8.79381 39.4135 -9.03558 41.0817C-9.27734 42.7499 -9.63999 43.8862 -10.0994 44.5148C-11.1148 42.7257 -12.106 40.9366 -13.1215 39.1233C-13.0731 39.4618 -13.2665 39.6552 -13.6534 39.6552C-13.9193 39.6552 -14.0885 39.6069 -14.1852 39.5344C-14.9105 39.0266 -15.2007 38.398 -15.0073 37.6244C-14.8864 37.2859 -14.7655 36.9474 -14.6688 36.609C-14.5479 36.2705 -14.4028 36.0287 -14.2094 35.8836C-13.0973 36.4155 -12.106 37.6244 -11.2598 39.486C-10.5587 40.985 -10.1477 41.8553 -10.051 42.0971C-9.80923 40.5981 -9.61582 39.4618 -9.47076 38.7365C-9.15646 37.4551 -8.57621 36.5122 -7.73002 35.8836C-7.22231 35.8836 -6.8113 35.9078 -6.52118 35.9804C-6.20688 36.0287 -5.94094 36.1738 -5.69917 36.4155L-5.65082 36.3672ZM-0.670389 56.7241C-0.670389 57.1834 -0.767097 57.667 -0.960512 58.1505C-1.15393 58.6341 -1.41987 59.1901 -1.78253 59.7945C-2.121 59.7945 -2.41112 59.6495 -2.60454 59.3835C-2.79795 59.1176 -2.94301 58.8033 -3.03972 58.4648C-3.13643 58.1263 -3.18478 57.7153 -3.18478 57.256C-3.18478 56.3372 -3.03972 55.5152 -2.77378 54.8141C-2.50783 54.113 -2.07265 53.3635 -1.4924 52.5415C-1.68582 53.0492 -1.87923 53.6294 -2.09682 54.2822C-2.31441 54.935 -2.41112 55.5152 -2.41112 56.023C-2.41112 56.845 -2.14518 57.5219 -1.58911 58.0538L-0.670389 56.7241ZM-7.17396 46.9083C-7.29484 47.9962 -8.28609 48.6248 -10.1961 48.7941C-12.0819 48.9633 -13.2423 49.471 -13.6775 50.2689C-13.5325 51.3085 -13.2423 52.5657 -12.8072 54.0405C-12.2269 56.1197 -11.8643 57.4494 -11.7434 58.0055C-11.5983 58.5615 -11.5016 59.1659 -11.4291 59.8429C-11.3566 60.4957 -11.3082 61.221 -11.3082 61.9946C-11.3082 63.276 -11.5016 64.4848 -11.8884 65.6453C-11.7676 65.2102 -11.695 64.92 -11.6467 64.7266C-11.5983 64.5332 -11.5983 64.1947 -11.5983 63.7354C-11.5983 62.7683 -11.7917 61.6562 -12.1786 60.3748L-14.1611 54.7416C-14.5479 53.4602 -14.7413 52.3722 -14.7413 51.4294C-14.7413 50.8491 -14.6446 50.293 -14.427 49.737C-14.2094 49.2051 -13.7501 48.6732 -13.0731 48.1413C-12.372 47.6094 -11.4049 47.1984 -10.1719 46.8841C-10.4137 46.5456 -10.8005 46.3522 -11.3807 46.3522C-11.5258 46.3522 -11.7676 46.4006 -12.0819 46.4731L-12.6137 47.0534C-12.8072 46.8116 -12.783 46.4731 -12.5654 46.0379C-12.3236 45.6027 -12.2269 45.361 -12.2269 45.3126C-11.9851 45.1192 -11.7676 44.9741 -11.5258 44.9016C-11.284 44.8291 -11.0906 44.7807 -10.8972 44.7807C-10.3653 44.7807 -9.71253 45.0225 -8.98722 45.5302C-8.40698 45.9896 -7.82673 46.4489 -7.24649 46.8599L-7.17396 46.9083ZM-17.57 55.7328C-17.57 57.2318 -17.7876 58.6099 -18.1986 59.8187C-18.6338 61.0276 -19.3107 62.043 -20.2778 62.865C-20.5921 62.9859 -20.8339 63.0342 -21.0273 63.0342C-21.4141 63.0342 -21.8009 62.9133 -22.1636 62.6474C-22.5262 62.4056 -22.8889 62.1397 -23.2274 61.8737C-24.267 60.0605 -24.7989 58.1022 -24.7989 56.023C-24.7989 53.9437 -24.1945 51.4052 -23.0098 48.4314C-21.9702 46.0621 -20.9306 43.6928 -19.8668 41.2993C-20.9064 45.1676 -21.946 49.0358 -23.0098 52.9041C-23.0098 53.9921 -22.7922 54.9834 -22.3328 55.9021C-21.8977 56.8208 -21.0998 57.6186 -19.9877 58.3198C-19.3591 58.3198 -18.8272 57.8362 -18.3678 56.8691C-18.1019 56.2889 -17.8359 55.9262 -17.5458 55.757L-17.57 55.7328ZM27.8099 70.118C27.4231 70.4565 26.9879 70.7466 26.5044 70.9884C26.0208 71.2302 25.223 71.5445 24.0867 71.9797C24.5944 70.8192 25.1021 69.6345 25.6582 68.4498C26.045 67.6278 26.456 66.9509 26.867 66.419C27.2055 66.8058 27.4473 67.241 27.5923 67.7245C27.7374 68.2081 27.7857 69.0059 27.7857 70.1422L27.8099 70.118ZM30.2518 83.1252C29.865 83.4637 29.3331 83.6571 28.6319 83.6571C28.1968 83.6571 27.7132 83.5845 27.1813 83.4153C26.2143 82.9801 25.3922 82.3999 24.7153 81.6262C24.0383 80.8526 23.4339 79.9338 22.8778 78.8942C24.5702 79.2085 25.9483 79.6195 26.9879 80.1756C28.3418 80.8767 29.4298 81.868 30.2276 83.1252H30.2518ZM13.1346 67.3377C12.6027 67.7971 11.9741 68.2081 11.2971 68.5466C10.6202 68.885 9.87071 69.2235 9.07287 69.5378C8.8311 68.885 8.63769 68.1839 8.49263 67.4586C8.34757 66.7333 8.25086 66.008 8.25086 65.3069C8.25086 64.8717 8.27504 64.4365 8.34757 63.9771C8.39592 63.5178 8.54099 63.0584 8.78275 62.5749C9.29047 62.454 9.79818 62.5265 10.2817 62.8167C10.4751 62.9375 10.8861 63.2035 11.4906 63.6387C12.3126 64.7991 12.8445 66.0322 13.1104 67.3619L13.1346 67.3377Z" fill="url(#paint0_linear_281_1558)"/>
</g>
<defs>
<linearGradient id="paint0_linear_281_1558" x1="11.8333" y1="47.5896" x2="105.49" y2="169.039" gradientUnits="userSpaceOnUse">
<stop stop-color="#FFCC40"/>
<stop offset="1" stop-color="#9B7A2F"/>
</linearGradient>
</defs>
</svg>
