<svg width="120" height="120" viewBox="0 0 120 120" fill="none" xmlns="http://www.w3.org/2000/svg">
<g id="Surah Name - Thuluth Style">
<path id="Vector" fill-rule="evenodd" clip-rule="evenodd" d="M105 70.2128C105 72.1424 104.807 74.0719 104.394 75.9739C104.008 77.8759 103.429 79.7228 102.685 81.5421C102.96 79.6125 103.07 77.7105 103.07 75.8637C103.07 74.6232 103.015 73.2725 102.877 71.784C102.74 70.2955 102.574 68.8346 102.354 67.3736L98.1914 36.9418C98.2741 36.5007 98.3292 36.1699 98.3292 35.9494C98.3292 35.4257 98.2741 34.902 98.1363 34.3507C97.7504 32.807 97.5299 31.9525 97.5299 31.7595C97.5299 31.098 97.7228 30.4915 98.1363 29.9678C98.3568 29.3889 98.6325 28.8376 98.9357 28.3139C99.2389 27.7902 99.5972 27.3767 99.9832 27.1286C100.259 28.0934 101.058 30.1608 102.436 33.3583C103.594 36.0046 104.145 38.0168 104.145 39.3675C104.145 39.9739 104.09 40.4425 104.008 40.7458C103.787 40.4701 103.511 40.0291 103.208 39.4226C102.905 38.8162 102.602 38.32 102.354 37.9617L101.224 39.6156L105 70.1853V70.2128ZM82.2312 28.0107C82.3139 28.4517 82.1761 28.9203 81.7902 29.3889C81.4043 29.8851 80.9908 30.2159 80.4946 30.4364C78.0138 31.3736 75.5881 32.2833 73.1623 33.2205C70.4334 34.3231 68.0904 35.4808 66.1608 36.6661C66.6018 34.9847 67.9525 33.7167 70.1853 32.8346C72.0873 32.1179 73.9893 31.4012 75.9464 30.6569C77.7106 30.0505 79.0337 29.5543 79.9158 29.196C80.7979 28.8376 81.5697 28.4517 82.2312 28.0107ZM82.1761 50.4487C82.2588 50.6141 82.3139 50.9173 82.3139 51.3032C82.3139 51.6891 82.2312 52.075 82.0934 52.4609C81.928 52.8468 81.7075 53.2603 81.4043 53.7565C80.8805 54.0597 80.4671 54.2251 80.219 54.2251C79.9985 54.2251 79.7779 54.1148 79.5574 53.8943C79.3369 53.5084 79.1715 53.0673 79.0888 52.5712C79.0061 52.075 78.951 51.6064 78.951 51.1102C78.951 50.2833 79.1164 49.2909 79.4196 48.1883C79.5023 47.8024 79.8055 46.8652 80.3568 45.4042C80.4119 45.5421 80.4119 45.7902 80.4119 46.1209C80.4119 46.562 80.3293 47.2235 80.1363 48.1056C79.9709 48.9877 79.8606 49.6493 79.8606 50.0903C79.8606 51.1102 80.2466 51.7994 81.0459 52.2128C81.1838 52.0474 81.3492 51.7167 81.5421 51.2756C81.7351 50.8346 81.9556 50.5589 82.1761 50.4211V50.4487ZM62.7979 26.9081C62.8806 27.1837 62.7979 27.4869 62.5222 27.8453C62.2466 28.2036 61.9985 28.5344 61.7228 28.8376C54.804 31.8422 47.8851 34.8193 41.0214 37.7687C40.9663 37.3828 41.1041 36.9418 41.3798 36.5007C41.6554 36.0597 41.9587 35.6186 42.2619 35.1776C44.3293 34.0199 46.8652 32.9173 49.8698 31.8147C57.8637 28.8101 62.1639 27.1837 62.7703 26.9081H62.7979ZM75.0368 46.9479C75.1194 47.3889 75.1746 47.637 75.1746 47.6646C75.1746 48.1056 74.7335 48.4088 73.8515 48.5467C72.9694 48.7121 72.4732 49.0704 72.3354 49.6493C72.1976 49.9525 72.1149 50.3108 72.0597 50.6968C72.0046 51.0827 72.0046 51.5513 72.0046 52.075V53.8667C72.0046 54.5283 71.977 55.0245 71.8943 55.3552C71.8392 55.686 71.6738 56.0444 71.3982 56.4579C70.2956 54.7764 69.193 53.0949 68.0904 51.3583C68.0352 51.7442 67.8698 51.9647 67.5666 51.9647C66.9051 51.6891 66.464 51.5237 66.2435 51.441C66.1057 51.1653 66.0505 50.8346 66.0505 50.4487C66.0505 49.6493 66.3262 48.8775 66.9051 48.1332C67.8423 48.4364 68.6692 49.1255 69.4135 50.173C69.7718 50.6692 70.3231 51.6615 71.0674 53.15C71.4257 51.441 71.7014 50.1179 71.9219 49.2358C72.3078 47.6095 73.0521 46.7825 74.0995 46.7825C74.4855 46.7825 74.8162 46.8376 75.0368 46.9203V46.9479ZM61.9985 39.147L57.974 36.5007L55.2726 39.9464C54.7764 39.8637 54.0597 39.5329 53.0949 38.9816C52.1302 38.4303 51.3583 38.0995 50.7795 38.0168C50.2557 38.7611 49.732 39.5329 49.1807 40.3047C48.657 41.0765 48.3262 41.7932 48.1884 42.4548C48.8499 42.8407 49.5391 43.2542 50.2833 43.6676C51 44.0811 51.7167 44.3843 52.4334 44.5497C52.709 44.2465 53.0949 43.6676 53.6187 42.7856C54.1424 41.931 54.611 41.297 54.9969 40.9111L59.3522 43.6952C60.5926 42.2343 61.4747 40.7182 61.9985 39.1194V39.147ZM70.3231 66.271C70.1577 67.4563 70.0475 68.1179 69.9923 68.2557C69.7718 68.9173 69.3308 69.3859 68.6692 69.634C68.1455 69.634 67.6769 69.441 67.3185 69.0827C66.9326 68.6967 66.7672 68.2833 66.7672 67.7871C66.6845 66.9601 66.7121 66.2986 66.8224 65.83C66.9602 65.3614 67.4288 64.1761 68.2833 62.219C68.3384 62.5773 68.2833 63.0183 68.1455 63.5421C67.7044 65.0306 67.4839 65.8575 67.4839 65.9954C67.4839 66.7121 67.7871 67.2634 68.4211 67.6493C68.9173 67.8147 69.3032 67.6493 69.6064 67.1255C69.9096 66.6018 70.1577 66.2986 70.3231 66.271ZM40.7458 43.5023C40.8285 43.8606 40.8836 44.1363 40.8836 44.3568C40.8836 44.9632 40.6907 45.6248 40.2772 46.3415C40.1394 46.562 39.8913 46.6722 39.4778 46.6722H38.6784C38.1822 45.928 37.9617 45.101 37.9617 44.219C37.9617 43.4747 38.1271 42.6202 38.4303 41.7105C38.5957 41.1868 38.9265 40.415 39.4227 39.3951C39.5054 39.781 39.4227 40.4425 39.147 41.3246C38.8714 42.2067 38.7611 42.8407 38.7611 43.2542C38.7611 43.9157 38.9816 44.4395 39.4227 44.8529C39.781 44.9356 40.0291 44.8529 40.2221 44.5222C40.3874 44.219 40.5804 43.8882 40.7458 43.5298V43.5023ZM91.3002 58.9111C90.1975 52.902 89.0949 46.9203 87.9923 40.9111C87.9096 40.4701 87.8545 40.1669 87.8545 39.9739C87.8545 39.1745 88.1302 38.5957 88.6539 38.1822C88.709 38.2649 89.0674 38.7886 89.7841 39.781C90.2251 40.4425 90.6386 40.856 91.0521 41.049C90.7764 38.9265 90.17 36.5834 89.2052 34.0474C88.6815 32.6692 87.7443 30.464 86.4211 27.4318C85.8974 27.8729 85.4288 28.5895 85.0429 29.5543C84.8775 30.0781 84.5467 30.905 84.1057 32.0076C84.4916 35.4808 85.2634 40.1118 86.4211 45.8453C87.9648 53.5635 88.8469 58.1118 89.0674 59.4624C89.8668 64.3966 90.2527 69 90.2527 73.2174C88.6263 74.4027 86.7519 75.0092 84.6294 75.0092C83.2512 75.0092 82.0658 74.7611 81.0459 74.2925C80.3017 73.9892 79.6953 73.6033 79.2542 73.1623C78.8132 72.7212 78.5926 72.1975 78.5926 71.5635C78.5926 71.4257 78.5926 71.2327 78.6478 70.9571C78.7029 70.6814 78.7856 70.4609 78.9234 70.2404C77.3247 71.2879 75.7534 72.3629 74.1547 73.4104C70.7917 75.6156 67.8147 76.7182 65.2236 76.7182C65.0858 76.7182 64.8652 76.7182 64.562 76.7733H63.5697C61.7504 76.7733 60.0689 76.4425 58.4977 75.8085C56.9265 75.1745 55.6034 74.2098 54.5008 72.9418C56.3201 72.1424 57.6432 70.6539 58.5253 68.4487C59.1041 66.464 59.683 64.4793 60.317 62.4946C60.317 61.6952 60.2067 60.951 59.9587 60.2894C59.7106 59.6003 59.1041 58.415 58.1394 56.6784C57.2573 55.8514 56.1271 55.4104 54.7764 55.4104C53.6738 55.9892 52.7917 56.7611 52.1026 57.7258C51.4135 58.6906 50.8346 59.8759 50.3936 61.2542C49.925 62.6324 49.6217 64.0382 49.4564 65.4441C49.291 66.8499 49.2358 68.366 49.2358 70.0199L44.4671 71.7289C41.9862 72.611 39.7534 73.7136 37.7136 75.0367C36.0046 76.1944 34.1577 77.6554 32.2282 79.4747C28.6447 82.9203 25.1164 86.366 21.5881 89.8667C21.0919 90.0046 20.6508 90.0597 20.2649 90.0597C18.9418 90.0597 17.8116 89.5359 16.902 88.4609C16.3783 87.4134 16.1026 86.3108 16.1026 85.1531C16.1026 83.9954 16.2404 83.003 16.5436 82.0382C16.8193 81.0735 17.5084 79.3369 18.5559 76.8836C18.7213 76.9387 19.0245 77.0214 19.4104 77.1592H20.5957C22.5253 77.1592 24.4824 76.4701 26.4119 75.1194C27.9556 74.0168 29.4717 72.4732 30.9877 70.4885C30.9877 70.1853 31.0429 69.7442 31.1256 69.1653C31.2083 68.5865 31.2634 67.7871 31.2634 66.7121C31.2634 64.8652 30.9877 63.2389 30.4089 61.8882C29.83 60.5099 28.8101 59.3797 27.294 58.4425C28.1761 57.2572 29.0858 56.0719 29.9954 54.8591C31.7596 52.4885 32.6417 50.3108 32.6417 48.3813C32.6417 48.2159 32.6417 47.9127 32.5865 47.5268C30.2159 50.5314 27.5421 53.5084 24.5926 56.4579C24.51 56.32 23.5452 55.5206 21.6708 54.0046C20.5681 53.0673 20.1271 52.1301 20.3476 51.1654C20.5681 51.1102 20.8162 51.1654 21.0643 51.3583C21.4227 50.4211 20.6784 49.4839 18.804 48.5191C17.6462 47.9402 16.902 47.4716 16.5436 47.1409C16.0475 47.7197 15.7443 48.6018 15.5789 49.7871C15.4135 50.9724 15.3032 51.7718 15.2205 52.1577C16.0199 53.3981 17.0123 54.6937 18.1976 56.0719C19.3828 57.4502 20.5957 58.7458 21.8361 59.9862L21.0368 60.8407C19.7963 62.3843 18.7764 64.2036 17.9219 66.3261C17.0949 68.4487 16.6539 70.4058 16.6539 72.2251C16.6539 74.2098 17.1776 75.6156 18.2527 76.4701C17.536 78.1791 16.8193 79.9433 16.1026 81.7626C15.3859 83.5819 15 85.3185 15 87C15 87.6615 15.0827 88.3782 15.2205 89.15C15.3859 89.9219 15.7718 90.6386 16.4334 91.3001C16.9571 91.7963 17.7014 92.2649 18.6937 92.7611C19.0521 92.9816 19.4655 93.0918 19.9617 93.0918C20.4855 93.0918 21.0919 92.954 21.7534 92.6508C22.415 92.3752 23.049 92.0995 23.683 91.8239C25.7228 89.5359 27.6799 87.5237 29.5819 85.8147C31.732 83.83 33.8545 82.1209 35.9219 80.7151C38.2649 79.0888 40.608 77.7657 42.9786 76.7457C45.3492 75.7258 47.83 74.9816 50.4211 74.4854C51.0276 75.9739 52.1026 77.3522 53.5911 78.6202C55.0796 79.8882 56.6233 80.7703 58.2221 81.294C59.6003 81.5972 61.0061 81.7626 62.4671 81.7626C65.2787 81.7626 67.9801 81.1837 70.5161 79.9984C73.0521 78.8407 75.3675 77.1592 77.49 75.0092C77.5727 75.1745 77.6279 75.5053 77.6279 76.0015C77.6279 76.4425 77.683 76.7457 77.7657 76.9387C78.51 78.0964 79.4472 78.8958 80.5773 79.3644C81.7075 79.833 83.0306 80.0536 84.5743 80.0536C85.9525 80.0536 87.2205 79.833 88.3783 79.3644C89.536 78.8958 90.4456 78.1516 91.0521 77.0765C91.438 75.4778 91.7136 74.0168 91.8515 72.6386C91.9893 71.2603 92.0444 69.7167 92.0444 68.0076C92.0444 65.1409 91.7963 62.1087 91.3277 58.9387L91.3002 58.9111ZM51.4686 48.1332C51.5513 48.4915 51.4686 48.8223 51.2757 49.1531C51.0551 49.4839 50.8897 49.7595 50.7519 49.9801C47.389 51.3032 44.9081 52.268 43.2818 52.902C40.4701 54.0046 38.0168 55.1072 35.9495 56.2098C35.7289 55.9892 35.7289 55.686 35.977 55.2726C36.2251 54.8866 36.3354 54.611 36.3354 54.4732C41.3522 52.1301 46.4242 50.0076 51.4962 48.1332H51.4686ZM80.7703 86.4487C80.2741 87.2756 79.8331 87.9923 79.4472 88.5712C78.8683 89.3981 78.2894 90.0873 77.7381 90.611L73.1623 87.7718C73.438 87.0275 73.8239 86.2833 74.3201 85.5114C74.8162 84.7672 75.3951 84.0505 76.0015 83.3889C76.6631 83.5543 77.2971 83.8575 77.9311 84.2435C78.0965 84.3813 79.0613 85.098 80.7703 86.4211V86.4487ZM31.2358 34.075L29.0582 38.5681C27.7351 37.9617 26.6876 37.4931 25.9433 37.1899C25.1991 36.8866 24.5926 36.6386 24.1516 36.4732C24.2067 36.3905 24.1516 36.3078 24.0965 36.2526C24.0138 36.1975 23.9035 36.1148 23.7657 36.0321C23.2695 37.0796 22.9387 37.879 22.7182 38.4027C22.2772 39.3675 21.6432 39.7534 20.7887 39.5329L16.8744 38.0168C16.8744 37.1899 17.2328 36.2251 17.9219 35.1776C18.5008 34.4333 18.8867 33.882 19.1072 33.5237C20.6508 33.9096 21.5054 34.1301 21.6983 34.1853C22.5253 34.4609 23.4074 34.8193 24.2894 35.3154L26.4671 32.0076C27.5697 32.3935 28.3966 32.6967 28.9204 32.8621C29.8851 33.2205 30.657 33.634 31.2358 34.1301V34.075ZM43.9433 63.8453C43.9433 63.8453 44.0812 64.2036 44.0812 64.5069C44.0812 64.8652 43.9985 65.2235 43.8055 65.637C43.5023 66.1332 43.3093 66.464 43.1991 66.6845C42.9234 67.2082 42.51 67.4839 41.9311 67.4839C41.6279 67.4839 41.3247 67.3736 40.9939 67.1531C40.6355 66.4915 40.4701 65.8024 40.4701 65.1133C40.4701 64.3139 40.7458 63.3491 41.2695 62.1914C42.0138 60.565 42.4273 59.6003 42.5375 59.3522C42.5375 59.9311 42.3721 60.7304 42.0138 61.7228C41.6554 62.7427 41.49 63.4869 41.49 63.9831C41.49 64.5069 41.6554 65.0306 41.9587 65.4992C42.4548 65.637 42.8683 65.4992 43.2266 65.0306C43.4472 64.6447 43.6953 64.2312 43.9433 63.8453ZM48.9051 86.1454C48.7397 87.1102 48.6018 87.7442 48.5191 87.9923C48.2435 88.709 47.83 89.15 47.2511 89.3706C45.9832 89.2052 45.2665 88.4609 45.1286 87.1929C45.1286 86.1454 45.294 85.0704 45.6524 84.0229C46.0107 82.9755 46.4793 81.8453 47.1133 80.66C47.196 81.101 47.0306 81.9004 46.6172 83.0857C46.2037 84.2435 45.9832 85.0704 45.9832 85.5114C45.9832 86.4762 46.5345 87.1378 47.6371 87.4961C47.8576 87.3583 48.0781 87.1102 48.2711 86.7243C48.464 86.3384 48.6845 86.173 48.9051 86.173V86.1454ZM57.6983 66.1056C57.3124 66.9326 56.513 67.5941 55.3277 68.0903C54.6662 68.366 53.6462 68.6967 52.2956 69.1378C52.1302 68.3935 51.9648 67.5941 51.827 66.7948C51.6891 65.9678 51.634 65.1409 51.634 64.3139C51.634 63.5145 51.7718 62.7702 52.0199 62.026C52.268 61.2817 52.709 60.7856 53.2879 60.4824C54.5559 60.6202 55.5758 61.3093 56.3201 62.6049C56.4579 62.8254 56.9265 63.9831 57.6983 66.1056ZM29.2512 66.905C28.0107 68.366 26.66 69.4961 25.1715 70.3506C23.683 71.1776 22.1945 71.6186 20.6508 71.6186C20.4855 71.6186 20.2374 71.6186 19.9342 71.5635C19.7136 71.5635 19.4931 71.4533 19.2726 71.2327C19.0521 71.0122 18.8867 70.7641 18.7489 70.516C19.0521 69.1378 20.0444 67.3736 21.7259 65.2235C22.8285 63.8177 23.5727 62.8254 23.9862 62.2465C24.9234 62.6876 26.0536 63.6248 27.4319 65.0857C28.3691 66.0229 28.9755 66.6294 29.2787 66.9326L29.2512 66.905Z" fill="url(#paint0_linear_281_1564)"/>
</g>
<defs>
<linearGradient id="paint0_linear_281_1564" x1="47" y1="45.5" x2="160" y2="153" gradientUnits="userSpaceOnUse">
<stop stop-color="#FFCC40"/>
<stop offset="1" stop-color="#9B7A2F"/>
</linearGradient>
</defs>
</svg>
