<svg width="33" height="32" viewBox="0 0 33 32" fill="none" xmlns="http://www.w3.org/2000/svg">
<g id="icon">
<path id="Vector" d="M4.13821 13.362C4.13821 12.9467 4.13821 12.5801 4.18743 12.1648C3.58043 11.8471 3.16209 11.2037 3.16209 10.4625C3.16209 9.36293 4.0972 8.44257 5.27018 8.53216C5.45885 8.16564 5.68852 7.79912 5.9264 7.43261C5.73774 7.11496 5.59829 6.74029 5.59829 6.37378C5.59829 5.31495 6.48419 4.44345 7.56694 4.44345C7.94427 4.44345 8.31339 4.53304 8.6415 4.7611C9.01882 4.48417 9.43716 4.25612 9.8555 4.06879C9.90471 3.05883 10.7414 2.18733 11.8242 2.18733C12.5296 2.18733 13.1366 2.50498 13.4647 3.05883C13.9322 3.00996 14.3506 3.00996 14.8181 3.00996C15.1462 2.41538 15.8025 2 16.5489 2C17.6235 2 18.4683 2.82263 18.5176 3.84073C19.0753 4.06879 19.6413 4.39458 20.1581 4.71223C20.9045 4.25612 21.9381 4.29684 22.5943 4.94029C23.2997 5.72219 23.3408 6.78102 22.8322 7.55478C23.0701 7.9213 23.2505 8.28782 23.4392 8.7032C23.997 8.65433 24.6122 8.84166 25.0305 9.25705C25.9656 10.1774 25.7359 11.6924 24.6122 12.2869C24.7024 12.743 24.8008 13.248 24.8911 13.8019C25.9246 13.8915 26.7121 14.6734 26.7121 15.7322C26.7121 16.6037 26.1543 17.296 25.3996 17.5729C25.3996 17.801 25.4488 18.029 25.4488 18.306C25.8672 18.3548 26.2937 18.534 26.5726 18.8598C27.3191 19.5929 27.3191 20.8309 26.5726 21.572C26.3429 21.8001 26.0558 21.9874 25.7277 22.077C25.777 22.5331 25.777 22.9485 25.818 23.3639C26.8023 22.8101 28.1147 22.9974 28.9514 23.82L30.8216 25.6608C31.0595 25.8888 31.0595 26.2553 30.8216 26.4915C30.5837 26.7196 30.2146 26.7196 29.9767 26.4915L28.1065 24.6508C27.6882 24.2354 27.073 24.1458 26.5152 24.3332L29.3205 27.0861C29.5502 27.3142 29.5502 27.6807 29.3205 27.9087C29.0826 28.1368 28.7135 28.1368 28.4756 27.9087L25.6703 25.1558C25.4817 25.6608 25.5801 26.2553 25.9984 26.7196L27.8686 28.5603C28.1065 28.7884 28.1065 29.1549 27.8686 29.383C27.6308 29.611 27.2616 29.611 27.0238 29.383L25.1536 27.5422C24.3087 26.7196 24.1692 25.5223 24.686 24.5531C24.2184 24.5042 23.7017 24.5042 23.1849 24.4635C22.906 25.1558 22.2006 25.7015 21.3639 25.7015C20.4288 25.7015 19.6331 25.058 19.4445 24.1865C19.1656 24.1377 18.8867 24.1377 18.5996 24.0969C18.3207 24.7404 17.6153 25.2454 16.8196 25.2454C15.8353 25.2454 15.0396 24.5123 14.9002 23.592C14.3424 23.5024 13.7764 23.3639 13.3088 23.2743C12.9807 23.8282 12.3737 24.1458 11.6683 24.1458C10.5445 24.1458 9.65863 23.1847 9.69965 22.077C9.28131 21.8897 8.85477 21.6616 8.48565 21.4336C7.7392 21.9386 6.70566 21.849 6.00843 21.2055C5.35221 20.5621 5.26198 19.5033 5.77055 18.7702C5.44244 18.2652 5.16355 17.7603 4.92567 17.2064C4.36789 17.2064 3.90033 17.0191 3.52301 16.6526C2.5961 15.5204 2.87499 13.9159 4.13821 13.362ZM4.56475 11.0245C4.7042 11.1629 4.89286 11.2525 5.13074 11.2525C5.40963 11.2525 5.68852 11.0652 5.83617 10.8371C6.02483 10.5195 5.9264 10.1448 5.69673 9.91678C5.36862 9.59913 4.90106 9.59913 4.57295 9.91678C4.42531 10.1041 4.23664 10.7476 4.56475 11.0245ZM6.76308 6.43079C6.76308 6.70771 6.90252 6.93577 7.09119 7.07423C7.50952 7.35116 8.07551 7.2127 8.26417 6.75658C8.50205 6.2516 8.12473 5.69775 7.51773 5.69775C7.09118 5.68961 6.76308 6.0154 6.76308 6.43079ZM11.25 3.62897C10.9711 3.90589 10.9711 4.362 11.2007 4.63893C11.4796 5.00544 12.0456 5.00544 12.3737 4.6878C12.7018 4.37015 12.7018 3.90589 12.3737 3.58824C12.0456 3.35204 11.5371 3.35204 11.25 3.62897ZM16.5407 3.26245C15.9337 3.26245 15.5564 3.95476 15.8845 4.45974C16.1634 4.87513 16.7704 4.96472 17.0985 4.5982C17.1887 4.50861 17.2872 4.37015 17.2872 4.23168C17.4266 3.71856 17.0575 3.26245 16.5407 3.26245ZM21.733 5.87694C21.5936 5.73848 21.4049 5.64889 21.1752 5.64889C20.6585 5.64889 20.2893 6.15387 20.4288 6.65885C20.5682 7.16383 21.2245 7.35116 21.6428 7.07423C21.6428 7.07423 21.692 7.02537 21.733 6.98464C22.0611 6.69957 22.0611 6.19459 21.733 5.87694ZM23.6032 9.87606C23.1849 9.87606 22.8076 10.1937 22.8076 10.658C22.8076 11.0734 23.1849 11.4399 23.6032 11.4399C24.0216 11.4399 24.3989 11.0734 24.3989 10.658C24.3989 10.4218 24.0708 9.87606 23.6032 9.87606ZM25.293 15.1539C25.0141 14.877 24.5466 14.8363 24.2595 15.105C24.0708 15.2435 23.9806 15.4716 23.9806 15.6996C23.9806 16.115 24.3579 16.4815 24.7762 16.4815C25.1946 16.4815 25.5719 16.1639 25.5719 15.6996C25.5227 15.5204 25.4324 15.3412 25.293 15.1539ZM25.7113 19.6091C25.3832 19.2915 24.7762 19.3322 24.4973 19.7476C24.2595 20.0653 24.3579 20.5295 24.6368 20.7576C24.9649 20.9856 25.3832 20.9856 25.7113 20.7087C26.0394 20.4399 26.0394 19.9268 25.7113 19.6091ZM21.4049 24.382C21.4049 24.382 21.733 24.382 21.9627 24.154C22.2416 23.877 22.2908 23.4209 22.0119 23.144C21.6838 22.6879 20.9784 22.7775 20.6995 23.2336C20.6503 23.3721 20.6093 23.4617 20.6093 23.6001C20.6093 24.0155 20.9866 24.382 21.4049 24.382ZM16.8688 23.9259C17.3856 23.9259 17.7547 23.4698 17.6153 22.9648C17.6153 22.8752 17.566 22.8264 17.525 22.7368C17.2461 22.2806 16.5899 22.2806 16.2618 22.6879C16.1716 22.8264 16.0732 23.0055 16.0732 23.144C16.0732 23.6083 16.4505 23.9259 16.8688 23.9259ZM11.6765 22.8671C11.9144 22.8671 12.0948 22.7775 12.2343 22.639C12.5132 22.3621 12.5624 21.906 12.2835 21.6291C11.9062 21.173 11.1597 21.2625 10.9301 21.8164C10.7414 22.3214 11.1105 22.8671 11.6765 22.8671ZM6.85331 20.2526C6.99275 20.391 7.18141 20.4806 7.41109 20.4806C7.96887 20.4806 8.3462 19.8861 8.11652 19.3811C7.87865 18.8761 7.23063 18.7865 6.85331 19.153C6.5252 19.4707 6.5252 19.9268 6.85331 20.2526ZM6.05764 16.7177C6.24631 17.1331 6.47598 17.5485 6.71386 17.915C6.71386 17.915 6.76308 17.915 6.80409 17.8661C7.55054 17.6381 8.39541 17.8173 8.91219 18.4607C9.37974 19.0146 9.46997 19.7965 9.24029 20.391C9.51919 20.5784 9.79808 20.7087 10.1262 20.8472C11.1105 19.6499 13.071 20.0245 13.5385 21.4906C13.5877 21.6291 13.6287 21.8082 13.6287 21.9467C14.0963 22.0363 14.5639 22.134 15.0806 22.2236C15.1709 21.9956 15.3595 21.8082 15.5482 21.6291C16.2946 20.9368 17.5168 20.9856 18.2633 21.6779C18.5422 21.9549 18.7308 22.3214 18.8211 22.6879C19.0589 22.8264 19.2886 22.8752 19.5675 22.8752C19.6577 22.6472 19.8054 22.4191 19.9858 22.2318C20.7323 21.4987 21.9955 21.4987 22.7502 22.2318C22.988 22.4598 23.1685 22.7856 23.2669 23.1521C23.7345 23.201 24.1528 23.201 24.5794 23.2417C24.5301 22.8264 24.5301 22.4191 24.4891 21.9549C24.3005 21.906 24.161 21.8164 23.9724 21.6779C22.7584 20.8472 22.9388 19.0634 24.2102 18.42C24.161 18.1023 24.161 17.8254 24.12 17.4996C23.8903 17.4508 23.7017 17.3123 23.4638 17.182C22.4795 16.4489 22.4303 15.0236 23.3736 14.1928C23.4638 14.1032 23.5622 14.0544 23.6525 14.0055C23.5622 13.4516 23.4638 12.9467 23.3736 12.4906C23.0455 12.4417 22.7666 12.3521 22.4877 12.1729C21.4131 11.4399 21.3147 9.96565 22.299 9.14302C22.1596 8.82537 21.9709 8.49958 21.8315 8.22266C20.3796 8.72764 18.8867 7.48962 19.2558 5.97468C19.2558 5.88509 19.305 5.78735 19.346 5.74663C18.9687 5.51857 18.5504 5.29051 18.132 5.10318C17.4266 6.16201 15.8845 6.30047 14.9986 5.29051C14.7197 5.01359 14.5803 4.64707 14.531 4.28055C14.2522 4.28055 13.9733 4.28055 13.6862 4.28055C13.6862 4.69594 13.4975 5.10318 13.2678 5.42898C12.4229 6.43894 10.8316 6.34934 10.1344 5.29051C9.8555 5.42898 9.57661 5.60816 9.33873 5.74662C9.33873 5.74662 9.38794 5.83622 9.38794 5.88509C9.43716 5.97468 9.43716 6.07242 9.43716 6.16201C9.62582 7.31043 8.73173 8.40999 7.51773 8.40999C7.28805 8.40999 7.00096 8.36112 6.77128 8.27152C6.58262 8.49958 6.44317 8.7765 6.30373 9.05343C7.28805 9.83533 7.23883 11.3503 6.25451 12.0833C5.97562 12.3114 5.64751 12.401 5.3194 12.4498C5.27018 12.7268 5.27018 13.0037 5.27018 13.2725C5.9264 13.4109 6.48419 13.867 6.77128 14.5105C7.04197 15.2924 6.81229 16.2127 6.05764 16.7177ZM4.93387 15.8869C5.07332 15.8869 5.21276 15.8381 5.3112 15.7974C5.77875 15.5693 5.86898 14.9259 5.49986 14.5593C5.36042 14.4209 5.17175 14.3313 4.94207 14.3313C4.52374 14.3313 4.14641 14.6978 4.14641 15.1132C4.13821 15.5693 4.51553 15.8869 4.93387 15.8869Z" fill="#BFBFBF"/>
</g>
</svg>
