<svg width="24" height="24" viewBox="0 0 24 24" fill="none" xmlns="http://www.w3.org/2000/svg">
<g id="campaign">
<mask id="mask0_281_1529" style="mask-type:alpha" maskUnits="userSpaceOnUse" x="0" y="0" width="24" height="24">
<rect id="Bounding box" width="24" height="24" fill="#D9D9D9"/>
</mask>
<g mask="url(#mask0_281_1529)">
<path id="campaign_2" d="M17.9615 12.7499V11.25H21.5769V12.7499H17.9615ZM19.1038 19.4807L16.2115 17.3115L17.1231 16.1154L20.0153 18.2846L19.1038 19.4807ZM17.0846 7.84612L16.1731 6.65L19.0654 4.48077L19.9769 5.6769L17.0846 7.84612ZM5.25002 18.4807V14.5769H4.23077C3.73207 14.5769 3.30611 14.4003 2.9529 14.0471C2.5997 13.6939 2.4231 13.2679 2.4231 12.7692V11.2307C2.4231 10.732 2.5997 10.3061 2.9529 9.95287C3.30611 9.59967 3.73207 9.42307 4.23077 9.42307H8.09615L12.5769 6.75002V17.2499L8.09615 14.5769H6.74997V18.4807H5.25002ZM13.9615 15.1192V8.88075C14.3538 9.23588 14.6699 9.68332 14.9096 10.223C15.1493 10.7628 15.2692 11.3551 15.2692 12C15.2692 12.6448 15.1493 13.2372 14.9096 13.7769C14.6699 14.3166 14.3538 14.7641 13.9615 15.1192ZM4.23077 10.923C4.15385 10.923 4.08334 10.9551 4.01922 11.0192C3.95512 11.0833 3.92307 11.1538 3.92307 11.2307V12.7692C3.92307 12.8461 3.95512 12.9166 4.01922 12.9808C4.08334 13.0449 4.15385 13.0769 4.23077 13.0769H8.51152L11.0769 14.5846V9.41535L8.51152 10.923H4.23077Z" fill="#F9F9F9"/>
</g>
</g>
</svg>
